<svg width="52" height="52" viewBox="0 0 52 52" fill="none" xmlns="http://www.w3.org/2000/svg">
<circle cx="25.8526" cy="25.8526" r="25.8526" fill="#D9D9D9"/>
<path d="M11 31.9359C11 32.453 11.3041 32.9548 11.7942 33.2285L25.3119 40.8322C25.5811 40.9816 25.8912 41.0607 26.2074 41.0607C26.5237 41.0607 26.8337 40.9816 27.103 40.8322L40.6207 33.2285C41.1107 32.9548 41.4148 32.4682 41.4148 31.9359V19.77C41.4148 19.2529 41.1107 18.7511 40.6207 18.4773L27.103 10.8736C26.5623 10.5695 25.8526 10.5695 25.3119 10.8736L11.7942 18.4773C11.3041 18.7511 11 19.2377 11 19.77V31.9359ZM27.8971 36.8023V27.4801L38.0354 22.0055V31.0995L27.8971 36.8023ZM26.2074 13.9607L36.0754 19.5114L26.2074 24.834L16.3395 19.5114L26.2074 13.9607Z" fill="white"/>
</svg>
