<svg width="64" height="64" viewBox="0 0 64 64" fill="none" xmlns="http://www.w3.org/2000/svg">
<circle cx="32" cy="32" r="32" fill="#D9D9D9"/>
<path d="M32 12L34.2393 12.1257L36.4507 12.5014L38.6057 13.1229L40.6771 13.98L42.6407 15.0657L44.4693 16.3636L46.1429 17.8571L47.6371 19.5293L48.935 21.3586L50.0207 23.3214L50.8779 25.3936L51.4993 27.5486L51.875 29.76L52 32L51.8743 34.2393L51.4986 36.4507L50.8771 38.6057L50.02 40.6771L48.9343 42.6407L47.6364 44.4693L46.1429 46.1429L44.4707 47.6371L42.6414 48.935L40.6786 50.0207L38.6064 50.8779L36.4514 51.4993L34.24 51.875L32 52L29.7607 51.8743L27.5493 51.4986L25.3943 50.8771L23.3229 50.02L21.3593 48.9343L19.5307 47.6364L17.8571 46.1429L16.3629 44.4707L15.065 42.6414L13.9793 40.6786L13.1221 38.6064L12.5007 36.4514L12.125 34.24L12 32L12.1257 29.7607L12.5014 27.5493L13.1229 25.3943L13.98 23.3229L15.0657 21.3593L16.3636 19.5307L17.8571 17.8571L19.5293 16.3629L21.3586 15.065L23.3214 13.9793L25.3936 13.1221L27.5486 12.5007L29.76 12.125L32 12Z" fill="#B5B5B5"/>
<path d="M32.0001 26.2856L32.6401 26.3214L33.2715 26.4285L33.8872 26.6064L34.4801 26.8514L35.0401 27.1614L35.5629 27.5328L36.0408 27.9592L36.4679 28.4378L36.8386 28.9592L37.1486 29.5206L37.3936 30.1128L37.5708 30.7285L37.6779 31.3599L37.7143 31.9999L37.6786 32.6399L37.5715 33.2714L37.3936 33.8871L37.1486 34.4799L36.8386 35.0399L36.4672 35.5628L36.0408 36.0406L35.5622 36.4678L35.0408 36.8385L34.4793 37.1485L33.8872 37.3935L33.2715 37.5706L32.6401 37.6778L32.0001 37.7142L31.3601 37.6785L30.7286 37.5714L30.1129 37.3935L29.5201 37.1485L28.9601 36.8385L28.4372 36.4671L27.9593 36.0406L27.5322 35.5621L27.1615 35.0406L26.8515 34.4792L26.6065 33.8871L26.4293 33.2714L26.3222 32.6399L26.2858 31.9999L26.3215 31.3599L26.4286 30.7285L26.6065 30.1128L26.8515 29.5199L27.1615 28.9599L27.5329 28.4371L27.9593 27.9592L28.4379 27.5321L28.9593 27.1614L29.5208 26.8514L30.1129 26.6064L30.7286 26.4292L31.3601 26.3221L32.0001 26.2856Z" fill="#F2F2F2"/>
</svg>
