<svg width="57" height="61" viewBox="0 0 57 61" fill="none" xmlns="http://www.w3.org/2000/svg">
<path d="M13.2441 35.4168V38.9365H9.00235V51.3232H4.58014V38.9365H0.383559V35.4168H13.2441ZM14.1582 44.9832C14.1582 43.6746 14.3913 42.5315 14.8576 41.5538C15.3389 40.5761 15.9857 39.824 16.798 39.2975C17.6253 38.7711 18.5428 38.5079 19.5506 38.5079C20.423 38.5079 21.1751 38.6808 21.8068 39.0268C22.4385 39.3728 22.9274 39.839 23.2734 40.4257V38.6658H27.6956V51.3232H23.2734V49.5634C22.9274 50.15 22.431 50.6163 21.7842 50.9622C21.1525 51.3082 20.4079 51.4812 19.5506 51.4812C18.5428 51.4812 17.6253 51.218 16.798 50.6915C15.9857 50.165 15.3389 49.413 14.8576 48.4353C14.3913 47.4425 14.1582 46.2919 14.1582 44.9832ZM23.2734 44.9832C23.2734 44.171 23.0477 43.5317 22.5965 43.0654C22.1603 42.5992 21.6188 42.366 20.972 42.366C20.3102 42.366 19.7612 42.5992 19.325 43.0654C18.8887 43.5167 18.6706 44.156 18.6706 44.9832C18.6706 45.7955 18.8887 46.4423 19.325 46.9236C19.7612 47.3899 20.3102 47.623 20.972 47.623C21.6188 47.623 22.1603 47.3899 22.5965 46.9236C23.0477 46.4573 23.2734 45.8105 23.2734 44.9832ZM35.6079 51.4812C34.4647 51.4812 33.4419 51.2932 32.5394 50.9171C31.6519 50.526 30.945 49.9996 30.4185 49.3378C29.9071 48.6609 29.6213 47.9013 29.5612 47.059H33.848C33.9082 47.4651 34.0962 47.781 34.4121 48.0066C34.7279 48.2322 35.119 48.345 35.5853 48.345C35.9463 48.345 36.2321 48.2698 36.4427 48.1194C36.6533 47.969 36.7585 47.7734 36.7585 47.5328C36.7585 47.2169 36.5856 46.9838 36.2396 46.8333C35.8937 46.6829 35.3221 46.5175 34.5249 46.337C33.6224 46.1565 32.8703 45.9534 32.2687 45.7278C31.667 45.5022 31.1405 45.1337 30.6893 44.6222C30.2531 44.1108 30.035 43.4189 30.035 42.5465C30.035 41.7944 30.238 41.1176 30.6442 40.5159C31.0503 39.8992 31.6444 39.4104 32.4266 39.0494C33.2238 38.6884 34.1789 38.5079 35.292 38.5079C36.9466 38.5079 38.2477 38.914 39.1953 39.7262C40.1429 40.5385 40.6919 41.6064 40.8423 42.9301H36.8488C36.7736 42.524 36.5931 42.2156 36.3073 42.005C36.0366 41.7794 35.668 41.6666 35.2017 41.6666C34.8408 41.6666 34.5625 41.7343 34.3669 41.8696C34.1864 42.005 34.0962 42.193 34.0962 42.4337C34.0962 42.7345 34.2692 42.9677 34.6151 43.1331C34.9611 43.2835 35.5176 43.4415 36.2847 43.6069C37.2023 43.8025 37.9619 44.0206 38.5635 44.2612C39.1802 44.5019 39.7142 44.893 40.1655 45.4345C40.6317 45.9609 40.8649 46.6829 40.8649 47.6005C40.8649 48.3375 40.6468 48.9993 40.2106 49.5859C39.7894 50.1726 39.1802 50.6389 38.383 50.9848C37.6009 51.3157 36.6758 51.4812 35.6079 51.4812ZM50.9583 51.3232L47.4612 46.1339V51.3232H43.039V34.6272H47.4612V43.6295L50.9583 38.6658H56.2605L51.2742 45.0284L56.3507 51.3232H50.9583Z" fill="white"/>
<path d="M32.7993 5.53683C33.3133 6.05081 33.3133 6.88376 32.7993 7.39774C32.2853 7.91172 31.4524 7.91172 30.9384 7.39774L28.579 5.03832V13.7057H37.2455L34.887 11.3463C34.373 10.8323 34.373 9.9994 34.887 9.48541C35.401 8.97143 36.2339 8.97143 36.7479 9.48541L42.2847 15.0222L36.7479 20.5591C36.2339 21.0731 35.401 21.0731 34.887 20.5591C34.373 20.0451 34.373 19.2121 34.887 18.6982L37.2455 16.3387H28.579V25.0052L30.9384 22.6467C31.4524 22.1328 32.2853 22.1328 32.7993 22.6467C33.3133 23.1607 33.3133 23.9937 32.7993 24.5077L27.2625 30.0445L21.7256 24.5077C21.2117 23.9937 21.2117 23.1607 21.7256 22.6467C22.2396 22.1328 23.0726 22.1328 23.5866 22.6467L25.946 25.0052V16.3387H17.2795L19.638 18.6982C20.152 19.2121 20.152 20.0451 19.638 20.5591C19.124 21.0731 18.291 21.0731 17.7771 20.5591L12.2402 15.0222L17.7771 9.48541C18.291 8.97143 19.124 8.97143 19.638 9.48541C20.152 9.9994 20.152 10.8323 19.638 11.3463L17.2795 13.7057H25.946V5.03832L23.5866 7.39774C23.0726 7.91172 22.2396 7.91172 21.7256 7.39774C21.2117 6.88376 21.2117 6.05081 21.7256 5.53683L27.2625 0L32.7993 5.53683Z" fill="white"/>
</svg>
