<svg width="60" height="56" viewBox="0 0 60 56" fill="none" xmlns="http://www.w3.org/2000/svg">
<path d="M12.0879 30.7166V41.2532C12.0879 43.0432 11.5991 44.4119 10.6214 45.3596C9.65872 46.3072 8.32754 46.781 6.62785 46.781C4.82287 46.781 3.37888 46.2771 2.29589 45.2693C1.22794 44.2615 0.693971 42.81 0.693971 40.9148H5.07105C5.0861 42.1632 5.54486 42.7875 6.44735 42.7875C7.2596 42.7875 7.66572 42.276 7.66572 41.2532V30.7166H12.0879ZM20.6161 46.781C19.3526 46.781 18.217 46.5178 17.2092 45.9913C16.2165 45.4648 15.4343 44.7128 14.8627 43.7351C14.2912 42.7574 14.0054 41.6067 14.0054 40.283C14.0054 38.9744 14.2912 37.8313 14.8627 36.8536C15.4494 35.8759 16.239 35.1238 17.2318 34.5973C18.2396 34.0709 19.3752 33.8077 20.6387 33.8077C21.9022 33.8077 23.0303 34.0709 24.023 34.5973C25.0308 35.1238 25.8205 35.8759 26.3921 36.8536C26.9787 37.8313 27.272 38.9744 27.272 40.283C27.272 41.5917 26.9787 42.7423 26.3921 43.7351C25.8205 44.7128 25.0308 45.4648 24.023 45.9913C23.0152 46.5178 21.8796 46.781 20.6161 46.781ZM20.6161 42.9454C21.2328 42.9454 21.7442 42.7198 22.1504 42.2685C22.5715 41.8022 22.7821 41.1404 22.7821 40.283C22.7821 39.4257 22.5715 38.7714 22.1504 38.3201C21.7442 37.8689 21.2403 37.6433 20.6387 37.6433C20.037 37.6433 19.5331 37.8689 19.127 38.3201C18.7209 38.7714 18.5178 39.4257 18.5178 40.283C18.5178 41.1555 18.7134 41.8173 19.1044 42.2685C19.4955 42.7198 19.9994 42.9454 20.6161 42.9454ZM31.3048 32.7924C30.5227 32.7924 29.8909 32.5818 29.4096 32.1606C28.9433 31.7244 28.7102 31.1829 28.7102 30.5361C28.7102 29.8743 28.9433 29.3253 29.4096 28.8891C29.8909 28.4529 30.5227 28.2348 31.3048 28.2348C32.0719 28.2348 32.6886 28.4529 33.1549 28.8891C33.6363 29.3253 33.8769 29.8743 33.8769 30.5361C33.8769 31.1829 33.6363 31.7244 33.1549 32.1606C32.6886 32.5818 32.0719 32.7924 31.3048 32.7924ZM33.4934 33.9656V46.623H29.0712V33.9656H33.4934ZM44.2921 33.8528C45.7511 33.8528 46.9093 34.3416 47.7667 35.3193C48.624 36.282 49.0527 37.5906 49.0527 39.2452V46.623H44.6305V39.8318C44.6305 39.1098 44.4425 38.5457 44.0664 38.1396C43.6904 37.7185 43.1865 37.5079 42.5548 37.5079C41.8929 37.5079 41.374 37.7185 40.998 38.1396C40.6219 38.5457 40.4339 39.1098 40.4339 39.8318V46.623H36.0117V33.9656H40.4339V35.7706C40.825 35.199 41.3514 34.7402 42.0133 34.3943C42.6751 34.0333 43.4347 33.8528 44.2921 33.8528ZM58.9473 42.8551V46.623H57.0295C53.7956 46.623 52.1786 45.0211 52.1786 41.8173V37.6433H50.6218V33.9656H52.1786V30.8971H56.6234V33.9656H58.9248V37.6433H56.6234V41.885C56.6234 42.2309 56.6986 42.4791 56.849 42.6295C57.0145 42.7799 57.2852 42.8551 57.6613 42.8551H58.9473Z" fill="white"/>
<path d="M30.0833 0C20.438 0 13.1616 3.63817 13.1616 8.46086C13.1616 12.6067 18.5596 15.8726 26.2083 16.7187L25.4976 17.4124C25.3389 17.5698 25.2131 17.7569 25.1272 17.9631C25.0412 18.1693 24.997 18.3905 24.997 18.6139C24.997 18.8373 25.0412 19.0585 25.1272 19.2647C25.2131 19.4709 25.3389 19.658 25.4976 19.8153C25.6549 19.9739 25.842 20.0998 26.0482 20.1857C26.2544 20.2716 26.4756 20.3159 26.699 20.3159C26.9224 20.3159 27.1436 20.2716 27.3498 20.1857C27.556 20.0998 27.7431 19.9739 27.9004 19.8153L31.2848 16.431C31.4388 16.2701 31.5596 16.0803 31.6401 15.8726C31.8094 15.4606 31.8094 14.9985 31.6401 14.5865C31.5596 14.3788 31.4388 14.189 31.2848 14.0281L27.9004 10.6438C27.5818 10.3251 27.1496 10.1461 26.699 10.1461C26.2484 10.1461 25.8162 10.3251 25.4976 10.6438C25.1789 10.9624 24.9999 11.3946 24.9999 11.8452C24.9999 12.2958 25.1789 12.728 25.4976 13.0466L25.7006 13.2328C19.9303 12.4205 16.546 10.153 16.546 8.46086C16.546 6.39641 21.8255 3.38434 30.0833 3.38434C38.3411 3.38434 43.6207 6.39641 43.6207 8.46086C43.6207 9.86536 41.1671 11.8452 36.4967 12.8605C36.2756 12.9029 36.0652 12.9889 35.8778 13.1135C35.6904 13.2382 35.5298 13.399 35.4053 13.5865C35.2808 13.7741 35.195 13.9845 35.1528 14.2056C35.1107 14.4267 35.1131 14.654 35.1599 14.8742C35.2061 15.0922 35.2949 15.2989 35.4212 15.4825C35.5475 15.6661 35.7089 15.823 35.896 15.944C36.0831 16.0651 36.2923 16.148 36.5115 16.188C36.7307 16.228 36.9557 16.2243 37.1735 16.1772C43.35 14.8234 47.0051 11.9467 47.0051 8.46086C47.0051 3.63817 39.7287 0 30.0833 0Z" fill="white"/>
</svg>
