<svg width="73" height="58" viewBox="0 0 73 58" fill="none" xmlns="http://www.w3.org/2000/svg">
<path d="M13.2441 32.5955V36.1153H9.00235V48.502H4.58014V36.1153H0.383559V32.5955H13.2441ZM26.9736 42.0266C26.9736 42.3725 26.951 42.7185 26.9059 43.0644H18.5353C18.5804 43.7564 18.7684 44.2753 19.0993 44.6212C19.4453 44.9522 19.8815 45.1176 20.4079 45.1176C21.145 45.1176 21.6714 44.7867 21.9873 44.1249H26.7028C26.5073 44.9973 26.1237 45.7794 25.5521 46.4713C24.9956 47.1482 24.2887 47.6822 23.4313 48.0733C22.5739 48.4643 21.6263 48.6599 20.5884 48.6599C19.34 48.6599 18.2269 48.3967 17.2492 47.8702C16.2866 47.3438 15.527 46.5917 14.9704 45.614C14.4289 44.6363 14.1582 43.4856 14.1582 42.162C14.1582 40.8383 14.4289 39.6951 14.9704 38.7325C15.5119 37.7548 16.264 37.0027 17.2267 36.4763C18.2044 35.9498 19.325 35.6866 20.5884 35.6866C21.8369 35.6866 22.9424 35.9423 23.9051 36.4537C24.8678 36.9651 25.6198 37.7021 26.1613 38.6648C26.7028 39.6124 26.9736 40.733 26.9736 42.0266ZM22.4611 40.921C22.4611 40.3795 22.2806 39.9584 21.9196 39.6575C21.5586 39.3417 21.1074 39.1837 20.5659 39.1837C20.0244 39.1837 19.5807 39.3341 19.2347 39.635C18.8887 39.9208 18.6631 40.3494 18.5578 40.921H22.4611ZM28.0613 42.162C28.0613 40.8533 28.2945 39.7102 28.7607 38.7325C29.2421 37.7548 29.8889 37.0027 30.7011 36.4763C31.5284 35.9498 32.4459 35.6866 33.4537 35.6866C34.3261 35.6866 35.0782 35.8596 35.7099 36.2055C36.3417 36.5515 36.8305 37.0177 37.1765 37.6044V35.8445H41.5987V48.502H37.1765V46.7421C36.8305 47.3287 36.3342 47.795 35.6874 48.141C35.0556 48.4869 34.3111 48.6599 33.4537 48.6599C32.4459 48.6599 31.5284 48.3967 30.7011 47.8702C29.8889 47.3438 29.2421 46.5917 28.7607 45.614C28.2945 44.6212 28.0613 43.4706 28.0613 42.162ZM37.1765 42.162C37.1765 41.3497 36.9509 40.7104 36.4996 40.2442C36.0634 39.7779 35.5219 39.5447 34.8751 39.5447C34.2133 39.5447 33.6643 39.7779 33.2281 40.2442C32.7919 40.6954 32.5738 41.3347 32.5738 42.162C32.5738 42.9742 32.7919 43.621 33.2281 44.1023C33.6643 44.5686 34.2133 44.8017 34.8751 44.8017C35.5219 44.8017 36.0634 44.5686 36.4996 44.1023C36.9509 43.636 37.1765 42.9892 37.1765 42.162ZM43.3966 42.162C43.3966 40.8533 43.6674 39.7102 44.2089 38.7325C44.7504 37.7548 45.5024 37.0027 46.4651 36.4763C47.4428 35.9498 48.5559 35.6866 49.8043 35.6866C51.4138 35.6866 52.7675 36.1303 53.8655 37.0177C54.9636 37.8902 55.6705 39.116 55.9864 40.6954H51.2934C51.0227 39.8681 50.4962 39.4545 49.7141 39.4545C49.1575 39.4545 48.7138 39.6876 48.3829 40.1539C48.067 40.6052 47.9091 41.2745 47.9091 42.162C47.9091 43.0494 48.067 43.7263 48.3829 44.1926C48.7138 44.6588 49.1575 44.892 49.7141 44.892C50.5113 44.892 51.0377 44.4783 51.2934 43.6511H55.9864C55.6705 45.2154 54.9636 46.4413 53.8655 47.3287C52.7675 48.2162 51.4138 48.6599 49.8043 48.6599C48.5559 48.6599 47.4428 48.3967 46.4651 47.8702C45.5024 47.3438 44.7504 46.5917 44.2089 45.614C43.6674 44.6363 43.3966 43.4856 43.3966 42.162ZM66.1489 35.7317C67.5929 35.7317 68.7361 36.2205 69.5784 37.1982C70.4358 38.1609 70.8644 39.4695 70.8644 41.1241V48.502H66.4422V41.7107C66.4422 40.9887 66.2542 40.4247 65.8782 40.0185C65.5021 39.5974 64.9982 39.3868 64.3665 39.3868C63.7047 39.3868 63.1857 39.5974 62.8097 40.0185C62.4337 40.4247 62.2456 40.9887 62.2456 41.7107V48.502H57.8234V31.8059H62.2456V37.6495C62.6367 37.0779 63.1632 36.6191 63.825 36.2732C64.5019 35.9122 65.2765 35.7317 66.1489 35.7317Z" fill="#A5A5A5"/>
<path d="M32.5406 0.217793C33.3888 -0.0725977 34.3094 -0.0725977 35.1576 0.217793C36.3472 0.624139 38.5476 1.42003 41.7581 2.75731C44.069 3.72065 45.7082 4.46612 46.812 4.99491C47.5316 5.33944 47.9446 6.01828 47.9446 6.73974C47.9446 7.4612 47.5316 8.14004 46.8114 8.48457C45.7082 9.01276 44.069 9.75882 41.7581 10.7222C38.5476 12.0595 36.3472 12.8553 35.1576 13.2611C34.3094 13.5515 33.3888 13.5515 32.5406 13.2611C31.351 12.8553 29.1506 12.0595 25.94 10.7222C25.0713 10.3608 24.2064 9.99041 23.3453 9.61117V19.1978C23.9452 19.411 24.4505 19.8292 24.7722 20.3786C25.0939 20.928 25.2112 21.5733 25.1036 22.2008C24.996 22.8283 24.6702 23.3976 24.1838 23.8084C23.6974 24.2192 23.0816 24.445 22.445 24.4461C21.8074 24.4467 21.1902 24.2216 20.7026 23.8109C20.215 23.4002 19.8884 22.8302 19.7806 22.2018C19.6728 21.5734 19.7908 20.9272 20.1136 20.3774C20.4365 19.8276 20.9434 19.4098 21.5447 19.1978V8.79608C21.307 8.68524 21.0877 8.5814 20.8868 8.48457C20.1666 8.14004 19.7536 7.4612 19.7536 6.73974C19.7536 6.01828 20.1666 5.33944 20.8868 4.99491C21.99 4.46612 23.6292 3.72065 25.9406 2.75731C29.1506 1.42003 31.351 0.624139 32.5412 0.218393" fill="#A5A5A5"/>
<path d="M31.9596 14.6609C29.6594 13.8748 27.3869 13.01 25.146 12.068V12.2414C25.146 14.1273 25.2426 15.335 25.3435 16.0828C25.4629 16.9687 25.9791 17.7472 26.7942 18.174C27.9748 18.7916 30.258 19.6439 33.8491 19.6439C37.4402 19.6439 39.7234 18.7916 40.9041 18.1734C41.7192 17.7472 42.2359 16.9687 42.3548 16.0828C42.4556 15.335 42.5523 14.1273 42.5523 12.2414V12.0674C40.3114 13.0094 38.0388 13.8742 35.7386 14.6603C34.5138 15.0791 33.1845 15.0797 31.9596 14.6609Z" fill="#A5A5A5"/>
</svg>
