# WaveFront *.obj file (generated by Autodesk ATF)

mtllib L6.mtl

g MeshBody1

v -0.032495 0.000588 0.013600
v -0.032437 -0.002029 0.005600
v -0.032437 -0.002029 0.013600
v -0.032342 0.003201 0.005600
v -0.032342 0.003201 0.013600
v -0.032168 -0.004632 0.013600
v -0.031980 0.005793 0.013600
v -0.031691 -0.007206 0.005600
v -0.031691 -0.007206 0.013600
v -0.031495 0.000570 0.014600
v -0.031439 -0.001966 0.004600
v -0.031410 0.008347 0.005600
v -0.031410 0.008347 0.013600
v -0.031347 0.003102 0.004600
v -0.031178 -0.004490 0.014600
v -0.031009 -0.009732 0.013600
v -0.030996 0.005615 0.014600
v -0.030716 -0.006984 0.004600
v -0.030636 0.010848 0.013600
v -0.030443 0.008091 0.004600
v -0.030125 -0.012196 0.005600
v -0.030125 -0.012196 0.013600
v -0.030054 -0.009433 0.014600
v -0.029694 0.010514 0.014600
v -0.029664 0.013278 0.005600
v -0.029664 0.013278 0.013600
v -0.029593 -0.000516 0.004600
v -0.029593 -0.000516 0.012600
v -0.029222 -0.002149 0.004600
v -0.029222 -0.002149 0.012600
v -0.029198 -0.011821 0.004600
v -0.029163 0.001103 0.004600
v -0.029163 0.001103 0.012600
v -0.029046 -0.014580 0.013600
v -0.028751 0.012869 0.004600
v -0.028499 0.015622 0.005600
v -0.028499 0.015622 0.013600
v -0.028152 -0.014132 0.014600
v -0.028134 -0.003423 0.004600
v -0.028134 -0.003423 0.012600
v -0.028029 0.002337 0.004600
v -0.028029 0.002337 0.012600
v -0.027778 -0.016870 0.005600
v -0.027778 -0.016870 0.013600
v -0.027622 0.015141 0.004600
v -0.027622 0.015141 0.014600
v -0.027560 0.007666 0.004600
v -0.027250 -0.006333 0.004600
v -0.027150 0.017864 0.005600
v -0.027150 0.017864 0.013600
v -0.026924 -0.016351 0.004600
v -0.026578 -0.004045 0.004600
v -0.026578 -0.004045 0.012600
v -0.026453 0.002903 0.004600
v -0.026453 0.002903 0.012600
v -0.026387 0.012609 0.004600
v -0.026387 0.012609 0.012600
v -0.026331 -0.019051 0.013600
v -0.026314 0.017315 0.004600
v -0.026094 -0.000579 0.012600
v -0.026016 -0.004078 0.004600
v -0.026016 -0.004078 0.012600
v -0.026015 0.010975 0.004600
v -0.026015 0.010975 0.012600
v -0.025956 0.014228 0.004600
v -0.025956 0.014228 0.012600
v -0.025808 -0.013485 0.004600
v -0.025808 -0.013485 0.012600
v -0.025624 0.019991 0.013600
v -0.025521 -0.018465 0.014600
v -0.025436 -0.015118 0.004600
v -0.025436 -0.015118 0.012600
v -0.025377 -0.011866 0.004600
v -0.025377 -0.011866 0.012600
v -0.024927 0.009701 0.004600
v -0.024927 0.009701 0.012600
v -0.024912 -0.003873 0.004600
v -0.024912 -0.003873 0.012600
v -0.024836 0.019376 0.014600
v -0.024823 0.015461 0.004600
v -0.024823 0.015461 0.012600
v -0.024793 0.002671 0.004600
v -0.024793 0.002671 0.012600
v -0.024713 -0.021108 0.005600
v -0.024713 -0.021108 0.013600
v -0.024569 0.009476 0.004600
v -0.024569 0.009476 0.012600
v -0.024348 -0.016392 0.004600
v -0.024348 -0.016392 0.012600
v -0.024244 -0.010632 0.004600
v -0.024244 -0.010632 0.012600
v -0.024201 -0.008004 0.004600
v -0.023952 -0.020458 0.004600
v -0.023933 0.021988 0.005600
v -0.023933 0.021988 0.013600
v -0.023516 -0.002947 0.004600
v -0.023516 -0.002947 0.012600
v -0.023432 0.001694 0.004600
v -0.023432 0.001694 0.012600
v -0.023372 0.009079 0.004600
v -0.023372 0.009079 0.012600
v -0.023246 0.016027 0.004600
v -0.023246 0.016027 0.012600
v -0.023196 0.021312 0.004600
v -0.022934 -0.023028 0.013600
v -0.022887 0.012545 0.012600
v -0.022793 -0.017014 0.004600
v -0.022793 -0.017014 0.012600
v -0.022711 -0.001478 0.004600
v -0.022711 -0.001478 0.012600
v -0.022681 0.000197 0.004600
v -0.022681 0.000197 0.012600
v -0.022667 -0.010067 0.004600
v -0.022667 -0.010067 0.012600
v -0.022308 -0.013548 0.012600
v -0.022228 -0.022319 0.014600
v -0.022086 0.023843 0.013600
v -0.022015 -0.001934 0.014600
v -0.021970 0.002398 0.014600
v -0.021705 0.009251 0.004600
v -0.021705 0.009251 0.012600
v -0.021587 0.015795 0.004600
v -0.021587 0.015795 0.012600
v -0.021421 0.004301 0.004600
v -0.021406 0.023109 0.014600
v -0.021287 0.019109 0.004600
v -0.021215 -0.006192 0.014600
v -0.021127 -0.016843 0.004600
v -0.021127 -0.016843 0.012600
v -0.021080 0.006638 0.014600
v -0.021056 0.001361 0.008600
v -0.021019 -0.001847 0.013600
v -0.021008 -0.010299 0.004600
v -0.021008 -0.010299 0.012600
v -0.021007 -0.024799 0.005600
v -0.021007 -0.024799 0.013600
v -0.021003 0.002024 0.008600
v -0.021003 0.002024 0.013600
v -0.020980 -0.002246 0.008600
v -0.020980 -0.002246 0.013600
v -0.020975 0.002289 0.013600
v -0.020491 -0.016540 0.004600
v -0.020491 -0.016540 0.012600
v -0.020360 -0.024036 0.004600
v -0.020310 0.010178 0.004600
v -0.020310 0.010178 0.012600
v -0.020255 -0.005912 0.013600
v -0.020226 0.014819 0.004600
v -0.020226 0.014819 0.012600
v -0.020165 0.006210 0.008600
v -0.020165 0.006210 0.013600
v -0.020126 0.006338 0.013600
v -0.020099 -0.006423 0.008600
v -0.020099 -0.006423 0.013600
v -0.020096 0.025542 0.005600
v -0.020096 0.025542 0.013600
v -0.019731 -0.015916 0.004600
v -0.019731 -0.015916 0.012600
v -0.019647 -0.011275 0.004600
v -0.019647 -0.011275 0.012600
v -0.019599 -0.010212 0.014600
v -0.019505 0.011646 0.004600
v -0.019505 0.011646 0.012600
v -0.019477 0.024757 0.004600
v -0.019474 0.013321 0.004600
v -0.019474 0.013321 0.012600
v -0.019380 0.010623 0.014600
v -0.019109 -0.021287 0.004600
v -0.018943 -0.026409 0.013600
v -0.018926 -0.014447 0.004600
v -0.018926 -0.014447 0.012600
v -0.018895 -0.012772 0.004600
v -0.018895 -0.012772 0.012600
v -0.018712 -0.009750 0.013600
v -0.018503 0.010142 0.008600
v -0.018503 0.010142 0.013600
v -0.018394 -0.010337 0.008600
v -0.018394 -0.010337 0.013600
v -0.018373 0.002630 0.004600
v -0.018360 -0.025596 0.014600
v -0.018185 -0.000732 0.001000
v -0.018158 0.001238 0.001000
v -0.018158 0.001238 0.004600
v -0.018000 -0.002694 0.001000
v -0.018000 -0.002694 0.004600
v -0.017975 0.027077 0.013600
v -0.017917 0.003194 0.001000
v -0.017603 -0.004624 0.001000
v -0.017467 0.005113 0.001000
v -0.017467 0.005113 0.004600
v -0.017422 0.026244 0.014600
v -0.017230 -0.013839 0.014600
v -0.017186 -0.000692 -0.000000
v -0.017088 -0.001957 -0.000000
v -0.017048 0.022372 0.004600
v -0.017048 0.022372 0.012600
v -0.017000 -0.006500 0.001000
v -0.017000 -0.006500 0.004600
v -0.016993 -0.002662 -0.000000
v -0.016935 0.014199 0.014600
v -0.016933 0.003019 -0.000000
v -0.016812 0.006971 0.001000
v -0.016765 -0.003845 -0.000000
v -0.016757 -0.027847 0.005600
v -0.016757 -0.027847 0.013600
v -0.016676 0.020738 0.004600
v -0.016676 0.020738 0.012600
v -0.016636 -0.004370 -0.000000
v -0.016621 -0.002151 -0.000000
v -0.016617 0.023991 0.004600
v -0.016617 0.023991 0.012600
v -0.016540 0.020491 0.004600
v -0.016540 0.020491 0.012600
v -0.016451 -0.013213 0.013600
v -0.016241 -0.026990 0.004600
v -0.016197 -0.008300 0.001000
v -0.016174 -0.004135 -0.000000
v -0.016168 0.013557 0.013600
v -0.016082 0.013659 0.008600
v -0.016082 0.013659 0.013600
v -0.016045 -0.022824 0.004600
v -0.016045 -0.022824 0.012600
v -0.015960 0.008748 0.001000
v -0.015960 0.008748 0.004600
v -0.015937 -0.013828 0.008600
v -0.015937 -0.013828 0.013600
v -0.015888 0.006588 -0.000000
v -0.015738 0.028435 0.005600
v -0.015738 0.028435 0.013600
v -0.015673 -0.024457 0.004600
v -0.015673 -0.024457 0.012600
v -0.015615 -0.021205 0.004600
v -0.015615 -0.021205 0.012600
v -0.015588 0.019464 0.004600
v -0.015588 0.019464 0.012600
v -0.015496 -0.000344 -0.000000
v -0.015484 0.025224 0.004600
v -0.015484 0.025224 0.012600
v -0.015441 -0.002797 -0.000000
v -0.015307 -0.007844 -0.000000
v -0.015254 0.027560 0.004600
v -0.015250 0.000662 -0.000000
v -0.015206 -0.001338 -0.000000
v -0.015205 -0.010003 0.001000
v -0.015205 -0.010003 0.004600
v -0.015148 0.015745 0.004600
v -0.014996 -0.000333 0.000500
v -0.014996 -0.000333 0.005300
v -0.014920 0.010422 0.001000
v -0.014812 0.000422 0.000500
v -0.014812 0.000422 0.005300
v -0.014779 -0.001078 0.000500
v -0.014779 -0.001078 0.005300
v -0.014687 -0.013219 0.004600
v -0.014585 -0.025731 0.004600
v -0.014585 -0.025731 0.012600
v -0.014535 0.001410 -0.000000
v -0.014481 -0.019971 0.004600
v -0.014481 -0.019971 0.012600
v -0.014462 -0.029105 0.013600
v -0.014458 -0.002053 -0.000000
v -0.014312 -0.004015 0.008600
v -0.014275 0.000983 0.000500
v -0.014275 0.000983 0.005300
v -0.014246 -0.000316 0.005300
v -0.014246 -0.000316 0.008600
v -0.014218 -0.001615 0.000500
v -0.014218 -0.001615 0.005300
v -0.014199 -0.016935 0.014600
v -0.014154 0.000061 0.005300
v -0.014154 0.000061 0.008600
v -0.014138 -0.000689 0.005300
v -0.014138 -0.000689 0.008600
v -0.014100 0.009850 -0.000000
v -0.014034 -0.011588 0.001000
v -0.014033 0.018842 0.004600
v -0.014033 0.018842 0.012600
v -0.014017 -0.028210 0.014600
v -0.013907 0.025790 0.004600
v -0.013907 0.025790 0.012600
v -0.013886 0.000342 0.005300
v -0.013886 0.000342 0.008600
v -0.013857 -0.000957 0.005300
v -0.013857 -0.000957 0.008600
v -0.013839 0.017230 0.014600
v -0.013706 0.011974 0.001000
v -0.013706 0.011974 0.004600
v -0.013591 -0.002699 0.008600
v -0.013557 -0.016168 0.013600
v -0.013548 0.022308 0.012600
v -0.013541 0.001700 -0.000000
v -0.013530 0.001200 0.000500
v -0.013530 0.001200 0.005300
v -0.013513 0.000450 0.005300
v -0.013513 0.000450 0.008600
v -0.013480 -0.001049 0.005300
v -0.013480 -0.001049 0.008600
v -0.013463 -0.001799 0.000500
v -0.013463 -0.001799 0.005300
v -0.013452 -0.002299 -0.000000
v -0.013399 0.029609 0.013600
v -0.013263 -0.010951 -0.000000
v -0.013213 0.016451 0.013600
v -0.013136 0.000358 0.005300
v -0.013136 0.000358 0.008600
v -0.013107 -0.000940 0.005300
v -0.013107 -0.000940 0.008600
v -0.013030 -0.026353 0.004600
v -0.013030 -0.026353 0.012600
v -0.013004 0.016617 0.008600
v -0.013004 0.016617 0.013600
v -0.012987 0.028698 0.014600
v -0.012904 -0.019406 0.004600
v -0.012904 -0.019406 0.012600
v -0.012856 0.000090 0.005300
v -0.012856 0.000090 0.008600
v -0.012839 -0.000660 0.005300
v -0.012839 -0.000660 0.008600
v -0.012827 -0.016753 0.008600
v -0.012827 -0.016753 0.013600
v -0.012776 0.001016 0.000500
v -0.012776 0.001016 0.005300
v -0.012747 -0.000283 0.005300
v -0.012747 -0.000283 0.008600
v -0.012718 -0.001582 0.000500
v -0.012718 -0.001582 0.005300
v -0.012699 -0.013038 0.001000
v -0.012699 -0.013038 0.004600
v -0.012545 -0.022887 0.012600
v -0.012535 0.001454 -0.000000
v -0.012459 -0.002009 -0.000000
v -0.012366 0.019014 0.004600
v -0.012366 0.019014 0.012600
v -0.012331 0.013386 0.001000
v -0.012248 0.025558 0.004600
v -0.012248 0.025558 0.012600
v -0.012215 0.000479 0.000500
v -0.012215 0.000479 0.005300
v -0.012181 -0.001020 0.000500
v -0.012181 -0.001020 0.005300
v -0.012100 0.014073 0.004600
v -0.012073 -0.030175 0.005600
v -0.012073 -0.030175 0.013600
v -0.011997 -0.000266 0.000500
v -0.011997 -0.000266 0.005300
v -0.011802 0.006640 -0.000000
v -0.011787 0.000739 -0.000000
v -0.011743 -0.001261 -0.000000
v -0.011701 -0.029246 0.004600
v -0.011653 0.012651 -0.000000
v -0.011497 -0.000255 -0.000000
v -0.011412 0.017747 0.008600
v -0.011364 -0.026182 0.004600
v -0.011364 -0.026182 0.012600
v -0.011245 -0.019638 0.004600
v -0.011245 -0.019638 0.012600
v -0.011215 -0.014334 0.001000
v -0.010989 -0.000494 -0.000000
v -0.010973 0.030592 0.005600
v -0.010973 0.030592 0.013600
v -0.010971 0.019940 0.004600
v -0.010971 0.019940 0.012600
v -0.010887 0.024581 0.004600
v -0.010887 0.024581 0.012600
v -0.010811 0.014641 0.001000
v -0.010811 0.014641 0.004600
v -0.010715 0.002489 -0.000000
v -0.010635 0.029650 0.004600
v -0.010623 -0.019380 0.014600
v -0.010622 0.005994 -0.000000
v -0.010606 -0.007187 -0.000000
v -0.010599 -0.013546 -0.000000
v -0.010448 -0.003441 -0.000000
v -0.010275 -0.000718 0.008600
v -0.010212 0.019599 0.014600
v -0.010166 0.021409 0.004600
v -0.010166 0.021409 0.012600
v -0.010142 -0.018503 0.013600
v -0.010135 0.023084 0.004600
v -0.010135 0.023084 0.012600
v -0.010125 -0.006310 0.008600
v -0.010061 0.002206 0.008600
v -0.010007 0.011472 0.005200
v -0.010007 0.011472 0.008600
v -0.009990 -0.000449 0.001000
v -0.009976 -0.000697 0.001000
v -0.009976 -0.000697 0.008300
v -0.009968 -0.025255 0.004600
v -0.009968 -0.025255 0.012600
v -0.009933 0.025259 0.004600
v -0.009884 -0.020614 0.004600
v -0.009884 -0.020614 0.012600
v -0.009873 -0.005850 -0.000000
v -0.009854 0.004119 0.008600
v -0.009768 0.002141 0.001000
v -0.009768 0.002141 0.008300
v -0.009750 0.018712 0.013600
v -0.009741 0.002263 0.001000
v -0.009656 -0.003584 0.008600
v -0.009646 0.005287 -0.000000
v -0.009638 0.012981 0.005200
v -0.009638 0.012981 0.008600
v -0.009605 -0.031048 0.013600
v -0.009599 -0.015463 0.001000
v -0.009599 -0.015463 0.004600
v -0.009572 0.009981 0.005200
v -0.009572 0.009981 0.008600
v -0.009498 -0.003128 0.001000
v -0.009488 -0.011905 0.005200
v -0.009488 -0.011905 0.008600
v -0.009476 -0.024569 0.004600
v -0.009476 -0.024569 0.012600
v -0.009404 -0.004995 0.008600
v -0.009392 0.018894 0.008600
v -0.009392 0.018894 0.013600
v -0.009375 -0.003479 0.001000
v -0.009375 -0.003479 0.008300
v -0.009310 -0.030093 0.014600
v -0.009192 -0.018993 0.008600
v -0.009192 -0.018993 0.013600
v -0.009165 0.015724 0.001000
v -0.009163 -0.023786 0.004600
v -0.009163 -0.023786 0.012600
v -0.009133 -0.022111 0.004600
v -0.009133 -0.022111 0.012600
v -0.009132 -0.006132 -0.000000
v -0.009120 -0.010396 0.005200
v -0.009120 -0.010396 0.008600
v -0.009053 -0.013395 0.005200
v -0.009053 -0.013395 0.008600
v -0.009032 0.004951 0.008600
v -0.008769 0.004807 0.001000
v -0.008769 0.004807 0.008300
v -0.008707 0.011501 -0.000000
v -0.008707 0.011501 0.005200
v -0.008661 0.014860 -0.000000
v -0.008565 0.014103 0.005200
v -0.008565 0.014103 0.008600
v -0.008498 0.012356 -0.000000
v -0.008498 0.012356 0.005200
v -0.008476 0.031375 0.013600
v -0.008461 0.010656 -0.000000
v -0.008461 0.010656 0.005200
v -0.008450 0.008908 0.005200
v -0.008450 0.008908 0.008600
v -0.008302 -0.005574 0.001000
v -0.008262 0.028308 0.004600
v -0.008256 -0.006159 0.008600
v -0.008215 0.030410 0.014600
v -0.008189 -0.011876 -0.000000
v -0.008189 -0.011876 0.005200
v -0.008046 -0.009274 0.005200
v -0.008046 -0.009274 0.008600
v -0.008015 -0.005980 0.001000
v -0.008015 -0.005980 0.008300
v -0.007980 -0.011021 -0.000000
v -0.007980 -0.011021 0.005200
v -0.007942 -0.012721 -0.000000
v -0.007942 -0.012721 0.005200
v -0.007931 -0.014469 0.005200
v -0.007931 -0.014469 0.008600
v -0.007890 0.012992 -0.000000
v -0.007890 0.012992 0.005200
v -0.007871 -0.016410 0.001000
v -0.007862 0.007694 -0.000000
v -0.007825 0.010048 -0.000000
v -0.007825 0.010048 0.005200
v -0.007711 0.015374 -0.000000
v -0.007666 -0.027560 0.004600
v -0.007439 -0.015508 -0.000000
v -0.007411 0.016623 0.001000
v -0.007411 0.016623 0.004600
v -0.007371 -0.010385 -0.000000
v -0.007371 -0.010385 0.005200
v -0.007306 -0.013329 -0.000000
v -0.007306 -0.013329 0.005200
v -0.007271 0.007295 0.008600
v -0.007200 0.015037 -0.000000
v -0.007147 0.006994 0.001000
v -0.007139 -0.008368 -0.000000
v -0.007102 -0.009107 -0.000000
v -0.007076 -0.031720 0.005600
v -0.007076 -0.031720 0.013600
v -0.007074 0.014538 0.005200
v -0.007074 0.014538 0.008600
v -0.007060 0.007083 0.001000
v -0.007060 0.007083 0.008300
v -0.007045 0.013238 -0.000000
v -0.007045 0.013238 0.005200
v -0.006970 0.009839 -0.000000
v -0.006970 0.009839 0.005200
v -0.006941 0.008539 0.005200
v -0.006941 0.008539 0.008600
v -0.006896 0.015757 -0.000000
v -0.006885 0.023588 0.004600
v -0.006858 -0.030744 0.004600
v -0.006638 -0.021080 0.014600
v -0.006556 -0.008839 0.005200
v -0.006556 -0.008839 0.008600
v -0.006527 -0.010139 -0.000000
v -0.006527 -0.010139 0.005200
v -0.006490 -0.007608 0.001000
v -0.006451 -0.013538 -0.000000
v -0.006451 -0.013538 0.005200
v -0.006422 -0.014837 0.005200
v -0.006422 -0.014837 0.008600
v -0.006338 -0.020126 0.013600
v -0.006192 0.021215 0.014600
v -0.006191 0.013029 -0.000000
v -0.006191 0.013029 0.005200
v -0.006186 -0.008236 0.008600
v -0.006125 0.010086 -0.000000
v -0.006125 0.010086 0.005200
v -0.006051 -0.017165 0.001000
v -0.006051 -0.017165 0.004600
v -0.006020 0.014390 -0.000000
v -0.006006 -0.007996 0.001000
v -0.006006 -0.007996 0.008300
v -0.005954 0.016137 -0.000000
v -0.005924 0.031956 0.005600
v -0.005924 0.031956 0.013600
v -0.005912 0.020255 0.013600
v -0.005741 0.030972 0.004600
v -0.005672 -0.010347 -0.000000
v -0.005672 -0.010347 0.005200
v -0.005607 -0.013291 -0.000000
v -0.005607 -0.013291 0.005200
v -0.005570 0.017327 0.001000
v -0.005566 0.014169 0.005200
v -0.005566 0.014169 0.008600
v -0.005555 0.012421 -0.000000
v -0.005555 0.012421 0.005200
v -0.005517 0.010722 -0.000000
v -0.005517 0.010722 0.005200
v -0.005494 0.009529 -0.000000
v -0.005450 0.008975 0.005200
v -0.005450 0.008975 0.008600
v -0.005397 0.020398 0.008600
v -0.005397 0.020398 0.013600
v -0.005308 0.011576 -0.000000
v -0.005308 0.011576 0.005200
v -0.005287 0.015727 -0.000000
v -0.005264 0.016375 -0.000000
v -0.005213 0.026636 0.004600
v -0.005181 -0.020454 0.008600
v -0.005181 -0.020454 0.013600
v -0.005047 -0.009207 0.005200
v -0.005047 -0.009207 0.008600
v -0.005036 -0.010956 -0.000000
v -0.005036 -0.010956 0.005200
v -0.004998 -0.012655 -0.000000
v -0.004998 -0.012655 0.005200
v -0.004995 0.008663 0.001000
v -0.004932 -0.014402 0.005200
v -0.004932 -0.014402 0.008600
v -0.004922 0.009048 0.008600
v -0.004789 -0.011800 -0.000000
v -0.004789 -0.011800 0.005200
v -0.004778 0.008785 0.001000
v -0.004778 0.008785 0.008300
v -0.004617 -0.009984 -0.000000
v -0.004501 -0.032187 0.013600
v -0.004495 0.013896 0.008600
v -0.004443 0.013096 0.005200
v -0.004443 0.013096 0.008600
v -0.004377 0.010097 0.005200
v -0.004377 0.010097 0.008600
v -0.004362 -0.031197 0.014600
v -0.004197 -0.009077 0.001000
v -0.004160 -0.017718 0.001000
v -0.004078 0.026157 0.004600
v -0.004078 0.026157 0.012600
v -0.004078 0.026016 0.004600
v -0.004078 0.026016 0.012600
v -0.004008 0.011605 0.005200
v -0.004008 0.011605 0.008600
v -0.003931 -0.016745 -0.000000
v -0.003925 -0.010281 0.005200
v -0.003925 -0.010281 0.008600
v -0.003858 -0.013280 0.005200
v -0.003858 -0.013280 0.008600
v -0.003774 0.015211 0.008600
v -0.003707 0.024523 0.004600
v -0.003707 0.024523 0.012600
v -0.003665 0.017827 0.001000
v -0.003665 0.017827 0.004600
v -0.003648 0.027776 0.004600
v -0.003648 0.027776 0.012600
v -0.003615 -0.009645 0.008600
v -0.003510 -0.009364 0.001000
v -0.003510 -0.009364 0.008300
v -0.003490 -0.011772 0.005200
v -0.003490 -0.011772 0.008600
v -0.003355 -0.010021 0.008600
v -0.003333 0.032329 0.013600
v -0.003243 -0.019492 0.004600
v -0.003230 0.031334 0.014600
v -0.002921 -0.026030 0.004600
v -0.002921 -0.026030 0.012600
v -0.002720 0.010658 -0.000000
v -0.002619 0.023250 0.004600
v -0.002619 0.023250 0.012600
v -0.002549 -0.027664 0.004600
v -0.002549 -0.027664 0.012600
v -0.002515 0.029010 0.004600
v -0.002515 0.029010 0.012600
v -0.002490 -0.024411 0.004600
v -0.002490 -0.024411 0.012600
v -0.002472 0.009690 0.001000
v -0.002398 -0.021970 0.014600
v -0.002289 -0.020975 0.013600
v -0.002220 -0.018064 0.001000
v -0.002220 -0.018064 0.004600
v -0.002173 0.010068 0.008600
v -0.002110 0.009775 0.001000
v -0.002110 0.009775 0.008300
v -0.001934 0.022015 0.014600
v -0.001896 -0.032445 0.005600
v -0.001896 -0.032445 0.013600
v -0.001847 0.021019 0.013600
v -0.001838 -0.031446 0.004600
v -0.001752 -0.010860 -0.000000
v -0.001716 0.018119 0.001000
v -0.001621 0.017123 -0.000000
v -0.001593 -0.009872 0.001000
v -0.001461 -0.028938 0.004600
v -0.001461 -0.028938 0.012600
v -0.001357 -0.023178 0.004600
v -0.001357 -0.023178 0.012600
v -0.001180 0.021067 0.008600
v -0.001180 0.021067 0.013600
v -0.001064 0.022627 0.004600
v -0.001064 0.022627 0.012600
v -0.000957 -0.021078 0.008600
v -0.000957 -0.021078 0.013600
v -0.000938 0.029575 0.004600
v -0.000938 0.029575 0.012600
v -0.000751 -0.010273 0.008600
v -0.000730 -0.009973 0.001000
v -0.000730 -0.009973 0.008300
v -0.000721 0.032492 0.005600
v -0.000721 0.032492 0.013600
v -0.000699 0.031492 0.004600
v -0.000579 0.026094 0.012600
v -0.000452 0.011338 -0.000000
v -0.000354 -0.012807 -0.000000
v -0.000307 0.011601 0.008600
v -0.000253 -0.018198 0.001000
v -0.000240 -0.017198 -0.000000
v 0.000094 -0.029560 0.004600
v 0.000094 -0.029560 0.012600
v 0.000127 -0.011930 0.008600
v 0.000220 -0.022612 0.004600
v 0.000220 -0.022612 0.012600
v 0.000233 0.009997 0.001000
v 0.000253 0.018198 0.001000
v 0.000253 0.018198 0.004600
v 0.000257 0.010997 -0.000000
v 0.000281 0.012675 -0.000000
v 0.000379 -0.011469 -0.000000
v 0.000414 0.012916 0.008600
v 0.000579 -0.026094 0.012600
v 0.000603 0.022799 0.004600
v 0.000603 0.022799 0.012600
v 0.000699 -0.031492 0.014600
v 0.000721 -0.032492 0.013600
v 0.000721 0.029343 0.004600
v 0.000721 0.029343 0.012600
v 0.000730 0.009973 0.001000
v 0.000730 0.009973 0.008300
v 0.000751 0.010273 0.008600
v 0.000848 -0.010614 0.008600
v 0.001130 -0.009936 0.001000
v 0.001243 -0.010930 -0.000000
v 0.001716 -0.018119 0.001000
v 0.001716 -0.018119 0.004600
v 0.001761 -0.029388 0.004600
v 0.001761 -0.029388 0.012600
v 0.001838 0.031446 0.014600
v 0.001847 -0.021019 0.013600
v 0.001879 -0.022844 0.004600
v 0.001879 -0.022844 0.012600
v 0.001896 0.032445 0.013600
v 0.001934 -0.022015 0.014600
v 0.001998 0.023726 0.004600
v 0.001998 0.023726 0.012600
v 0.002082 0.028367 0.004600
v 0.002082 0.028367 0.012600
v 0.002098 0.017072 -0.000000
v 0.002110 -0.009775 0.001000
v 0.002110 -0.009775 0.008300
v 0.002173 -0.010068 0.008600
v 0.002220 0.018064 0.001000
v 0.002289 0.020975 0.013600
v 0.002398 0.021970 0.014600
v 0.002630 0.018373 0.004600
v 0.002804 0.025195 0.004600
v 0.002804 0.025195 0.012600
v 0.002834 0.026870 0.004600
v 0.002834 0.026870 0.012600
v 0.002922 0.009564 0.001000
v 0.003085 0.020873 0.008600
v 0.003085 0.020873 0.013600
v 0.003156 -0.028462 0.004600
v 0.003156 -0.028462 0.012600
v 0.003214 0.010520 -0.000000
v 0.003230 -0.031334 0.004600
v 0.003240 -0.023820 0.004600
v 0.003240 -0.023820 0.012600
v 0.003305 -0.020839 0.008600
v 0.003305 -0.020839 0.013600
v 0.003333 -0.032329 0.005600
v 0.003333 -0.032329 0.013600
v 0.003463 -0.016848 -0.000000
v 0.003510 0.009364 0.001000
v 0.003510 0.009364 0.008300
v 0.003615 0.009645 0.008600
v 0.003665 -0.017827 0.001000
v 0.003769 -0.009263 0.001000
v 0.003785 0.010754 -0.000000
v 0.003961 -0.026993 0.004600
v 0.003961 -0.026993 0.012600
v 0.003992 -0.025318 0.004600
v 0.003992 -0.025318 0.012600
v 0.004078 -0.026016 0.004600
v 0.004078 -0.026016 0.012600
v 0.004146 -0.010189 -0.000000
v 0.004160 0.017718 0.001000
v 0.004160 0.017718 0.004600
v 0.004301 0.021421 0.004600
v 0.004314 -0.014225 0.008600
v 0.004362 0.031197 0.004600
v 0.004490 0.011794 -0.000000
v 0.004501 0.032187 0.005600
v 0.004501 0.032187 0.013600
v 0.004735 0.012800 -0.000000
v 0.004778 -0.008785 0.001000
v 0.004778 -0.008785 0.008300
v 0.004780 0.010800 -0.000000
v 0.004922 -0.009048 0.008600
v 0.004989 0.011805 0.000500
v 0.004989 0.011805 0.005300
v 0.005008 -0.011583 -0.000000
v 0.005035 -0.012909 0.008600
v 0.005174 0.012559 0.000500
v 0.005174 0.012559 0.005300
v 0.005207 0.011060 0.000500
v 0.005207 0.011060 0.005300
v 0.005254 -0.010577 -0.000000
v 0.005298 -0.012577 -0.000000
v 0.005394 0.008421 0.001000
v 0.005451 0.013548 -0.000000
v 0.005508 -0.011572 0.000500
v 0.005508 -0.011572 0.005300
v 0.005528 0.010084 -0.000000
v 0.005570 -0.017327 0.001000
v 0.005570 -0.017327 0.004600
v 0.005692 -0.010818 0.000500
v 0.005692 -0.010818 0.005300
v 0.005710 0.013120 0.000500
v 0.005710 0.013120 0.005300
v 0.005718 0.016222 -0.000000
v 0.005726 -0.012317 0.000500
v 0.005726 -0.012317 0.005300
v 0.005739 0.011822 0.005300
v 0.005739 0.011822 0.008600
v 0.005741 -0.030972 0.014600
v 0.005768 0.010523 0.000500
v 0.005768 0.010523 0.005300
v 0.005831 0.012199 0.005300
v 0.005831 0.012199 0.008600
v 0.005848 0.011449 0.005300
v 0.005848 0.011449 0.008600
v 0.005912 -0.020255 0.013600
v 0.005924 -0.031956 0.013600
v 0.005933 0.009263 -0.000000
v 0.005969 -0.009829 -0.000000
v 0.006006 0.007996 0.001000
v 0.006006 0.007996 0.008300
v 0.006046 -0.013293 -0.000000
v 0.006051 0.017165 0.001000
v 0.006100 0.012479 0.005300
v 0.006100 0.012479 0.008600
v 0.006128 -0.007902 0.001000
v 0.006129 0.011181 0.005300
v 0.006129 0.011181 0.008600
v 0.006186 0.008236 0.008600
v 0.006192 -0.021215 0.014600
v 0.006229 -0.010257 0.000500
v 0.006229 -0.010257 0.005300
v 0.006258 -0.011555 0.005300
v 0.006258 -0.011555 0.008600
v 0.006287 -0.012854 0.000500
v 0.006287 -0.012854 0.005300
v 0.006338 0.020126 0.013600
v 0.006350 -0.011178 0.005300
v 0.006350 -0.011178 0.008600
v 0.006367 -0.011928 0.005300
v 0.006367 -0.011928 0.008600
v 0.006445 0.013838 -0.000000
v 0.006456 0.013338 0.000500
v 0.006456 0.013338 0.005300
v 0.006472 0.012588 0.005300
v 0.006472 0.012588 0.008600
v 0.006506 0.011088 0.005300
v 0.006506 0.011088 0.008600
v 0.006522 0.010339 0.000500
v 0.006522 0.010339 0.005300
v 0.006533 0.009839 -0.000000
v 0.006618 -0.010898 0.005300
v 0.006618 -0.010898 0.008600
v 0.006638 0.021080 0.014600
v 0.006647 -0.012196 0.005300
v 0.006647 -0.012196 0.008600
v 0.006741 -0.008693 -0.000000
v 0.006801 -0.015798 -0.000000
v 0.006850 0.012496 0.005300
v 0.006850 0.012496 0.008600
v 0.006858 0.030744 0.014600
v 0.006878 0.011197 0.005300
v 0.006878 0.011197 0.008600
v 0.006897 -0.015641 0.008600
v 0.006963 -0.009539 -0.000000
v 0.006974 -0.010039 0.000500
v 0.006974 -0.010039 0.005300
v 0.006991 -0.010789 0.005300
v 0.006991 -0.010789 0.008600
v 0.007004 -0.015709 -0.000000
v 0.007024 -0.012289 0.005300
v 0.007024 -0.012289 0.008600
v 0.007041 -0.013038 0.000500
v 0.007041 -0.013038 0.005300
v 0.007052 -0.013538 -0.000000
v 0.007060 -0.007083 0.001000
v 0.007060 -0.007083 0.008300
v 0.007076 0.031720 0.013600
v 0.007128 -0.015168 -0.000000
v 0.007130 0.012227 0.005300
v 0.007130 0.012227 0.008600
v 0.007147 0.011478 0.005300
v 0.007147 0.011478 0.008600
v 0.007184 0.009205 0.008600
v 0.007210 0.013154 0.000500
v 0.007210 0.013154 0.005300
v 0.007223 0.019825 0.008600
v 0.007223 0.019825 0.013600
v 0.007239 0.011855 0.005300
v 0.007239 0.011855 0.008600
v 0.007268 0.010556 0.000500
v 0.007268 0.010556 0.005300
v 0.007271 -0.007295 0.008600
v 0.007368 -0.010881 0.005300
v 0.007368 -0.010881 0.008600
v 0.007390 -0.025321 0.004600
v 0.007397 -0.012180 0.005300
v 0.007397 -0.012180 0.008600
v 0.007411 -0.016623 0.001000
v 0.007433 -0.019748 0.008600
v 0.007433 -0.019748 0.013600
v 0.007450 0.013592 -0.000000
v 0.007466 0.006653 0.001000
v 0.007527 0.010129 -0.000000
v 0.007618 -0.014325 0.008600
v 0.007649 -0.011149 0.005300
v 0.007649 -0.011149 0.008600
v 0.007665 -0.011899 0.005300
v 0.007665 -0.011899 0.008600
v 0.007666 0.027560 0.004600
v 0.007729 -0.010223 0.000500
v 0.007729 -0.010223 0.005300
v 0.007757 -0.011522 0.005300
v 0.007757 -0.011522 0.008600
v 0.007771 0.012617 0.000500
v 0.007771 0.012617 0.005300
v 0.007786 -0.012821 0.000500
v 0.007786 -0.012821 0.005300
v 0.007804 0.011117 0.000500
v 0.007804 0.011117 0.005300
v 0.007871 0.016410 0.001000
v 0.007871 0.016410 0.004600
v 0.007969 -0.009785 -0.000000
v 0.007989 0.011871 0.000500
v 0.007989 0.011871 0.005300
v 0.008015 0.005980 0.001000
v 0.008015 0.005980 0.008300
v 0.008033 -0.005956 0.001000
v 0.008046 -0.013248 -0.000000
v 0.008198 0.012876 -0.000000
v 0.008212 0.007318 -0.000000
v 0.008215 -0.030410 0.004600
v 0.008243 0.010877 -0.000000
v 0.008256 0.006159 0.008600
v 0.008290 -0.010760 0.000500
v 0.008290 -0.010760 0.005300
v 0.008323 -0.012260 0.000500
v 0.008323 -0.012260 0.005300
v 0.008476 -0.031375 0.005600
v 0.008476 -0.031375 0.013600
v 0.008489 0.011883 -0.000000
v 0.008507 -0.011505 0.000500
v 0.008507 -0.011505 0.005300
v 0.008717 -0.010501 -0.000000
v 0.008761 -0.012500 -0.000000
v 0.008769 -0.004807 0.001000
v 0.008769 -0.004807 0.008300
v 0.008773 -0.006092 0.008600
v 0.008836 -0.006552 -0.000000
v 0.008984 0.004392 0.001000
v 0.009007 -0.011494 -0.000000
v 0.009032 -0.004951 0.008600
v 0.009046 0.022950 0.004600
v 0.009046 0.022950 0.012600
v 0.009072 0.014613 -0.000000
v 0.009165 -0.015724 0.001000
v 0.009165 -0.015724 0.004600
v 0.009310 0.030093 0.004600
v 0.009342 -0.003568 0.001000
v 0.009375 0.003479 0.001000
v 0.009375 0.003479 0.008300
v 0.009417 0.021317 0.004600
v 0.009417 0.021317 0.012600
v 0.009476 0.024569 0.004600
v 0.009476 0.024569 0.012600
v 0.009599 0.015463 0.001000
v 0.009605 0.031048 0.005600
v 0.009605 0.031048 0.013600
v 0.009622 0.005332 -0.000000
v 0.009646 -0.005287 -0.000000
v 0.009656 0.003584 0.008600
v 0.009750 -0.018712 0.013600
v 0.009768 -0.002141 0.001000
v 0.009768 -0.002141 0.008300
v 0.009801 0.005718 -0.000000
v 0.009836 0.001805 0.001000
v 0.009882 0.004831 -0.000000
v 0.009945 0.005981 0.008600
v 0.009958 -0.000915 0.001000
v 0.009976 0.000697 0.001000
v 0.009976 0.000697 0.008300
v 0.010049 -0.022245 0.004600
v 0.010049 -0.022245 0.012600
v 0.010061 -0.002206 0.008600
v 0.010142 0.018503 0.013600
v 0.010212 -0.019599 0.014600
v 0.010217 -0.013836 -0.000000
v 0.010275 0.000718 0.008600
v 0.010276 -0.003925 -0.000000
v 0.010420 -0.023878 0.004600
v 0.010420 -0.023878 0.012600
v 0.010479 -0.020626 0.004600
v 0.010479 -0.020626 0.012600
v 0.010497 0.000233 0.005200
v 0.010497 0.000233 0.008600
v 0.010505 0.020043 0.004600
v 0.010505 0.020043 0.012600
v 0.010534 0.007055 -0.000000
v 0.010610 0.025803 0.004600
v 0.010610 0.025803 0.012600
v 0.010623 0.019380 0.014600
v 0.010635 -0.029650 0.014600
v 0.010666 0.007296 0.008600
v 0.010811 -0.014641 0.001000
v 0.010819 0.001986 -0.000000
v 0.010866 0.001741 0.005200
v 0.010866 0.001741 0.008600
v 0.010933 -0.001258 0.005200
v 0.010933 -0.001258 0.008600
v 0.010954 -0.001007 -0.000000
v 0.010973 -0.030592 0.013600
v 0.011066 0.017965 0.008600
v 0.011066 0.017965 0.013600
v 0.011215 0.014334 0.001000
v 0.011215 0.014334 0.004600
v 0.011256 -0.017847 0.008600
v 0.011256 -0.017847 0.013600
v 0.011356 -0.007507 0.008600
v 0.011508 -0.025152 0.004600
v 0.011508 -0.025152 0.012600
v 0.011612 -0.019392 0.004600
v 0.011612 -0.019392 0.012600
v 0.011701 0.029246 0.014600
v 0.011797 0.000262 -0.000000
v 0.011797 0.000262 0.005200
v 0.011939 0.002864 0.005200
v 0.011939 0.002864 0.008600
v 0.011947 -0.006377 -0.000000
v 0.012001 0.012321 -0.000000
v 0.012006 0.001117 -0.000000
v 0.012006 0.001117 0.005200
v 0.012044 -0.000583 -0.000000
v 0.012044 -0.000583 0.005200
v 0.012055 -0.002331 0.005200
v 0.012055 -0.002331 0.008600
v 0.012061 0.019421 0.004600
v 0.012061 0.019421 0.012600
v 0.012073 0.030175 0.013600
v 0.012187 0.026369 0.004600
v 0.012187 0.026369 0.012600
v 0.012331 -0.013386 0.001000
v 0.012331 -0.013386 0.004600
v 0.012545 0.022887 0.012600
v 0.012614 0.001752 -0.000000
v 0.012614 0.001752 0.005200
v 0.012680 -0.001191 -0.000000
v 0.012680 -0.001191 0.005200
v 0.012699 0.013038 0.001000
v 0.012953 -0.011317 -0.000000
v 0.012987 -0.028698 0.004600
v 0.013063 -0.025775 0.004600
v 0.013063 -0.025775 0.012600
v 0.013189 -0.018827 0.004600
v 0.013189 -0.018827 0.012600
v 0.013213 -0.016451 0.013600
v 0.013219 -0.014687 0.004600
v 0.013399 -0.029609 0.005600
v 0.013399 -0.029609 0.013600
v 0.013430 0.003299 0.005200
v 0.013430 0.003299 0.008600
v 0.013459 0.001999 -0.000000
v 0.013459 0.001999 0.005200
v 0.013534 -0.001400 -0.000000
v 0.013534 -0.001400 0.005200
v 0.013548 -0.022308 0.012600
v 0.013557 0.016168 0.013600
v 0.013563 -0.002700 0.005200
v 0.013563 -0.002700 0.008600
v 0.013706 -0.011974 0.001000
v 0.013727 0.019593 0.004600
v 0.013727 0.019593 0.012600
v 0.013839 -0.017230 0.014600
v 0.013846 0.026137 0.004600
v 0.013846 0.026137 0.012600
v 0.014017 0.028210 0.004600
v 0.014034 0.011588 0.001000
v 0.014034 0.011588 0.004600
v 0.014073 0.012100 0.004600
v 0.014132 0.003686 0.008600
v 0.014199 0.016935 0.014600
v 0.014314 0.001790 -0.000000
v 0.014314 0.001790 0.005200
v 0.014369 0.009453 -0.000000
v 0.014379 -0.001154 -0.000000
v 0.014379 -0.001154 0.005200
v 0.014456 0.015370 0.008600
v 0.014456 0.015370 0.013600
v 0.014462 0.029105 0.005600
v 0.014462 0.029105 0.013600
v 0.014618 -0.015216 0.008600
v 0.014618 -0.015216 0.013600
v 0.014730 -0.025603 0.004600
v 0.014730 -0.025603 0.012600
v 0.014848 -0.019059 0.004600
v 0.014848 -0.019059 0.012600
v 0.014853 0.005001 0.008600
v 0.014920 -0.010422 0.001000
v 0.014920 -0.010422 0.004600
v 0.014939 0.002930 0.005200
v 0.014939 0.002930 0.008600
v 0.014950 0.001182 -0.000000
v 0.014950 0.001182 0.005200
v 0.014987 -0.000518 -0.000000
v 0.014987 -0.000518 0.005200
v 0.015054 -0.002265 0.005200
v 0.015054 -0.002265 0.008600
v 0.015083 -0.008268 -0.000000
v 0.015123 0.020519 0.004600
v 0.015123 0.020519 0.012600
v 0.015196 0.000337 -0.000000
v 0.015196 0.000337 0.005200
v 0.015205 0.010003 0.001000
v 0.015207 0.025160 0.004600
v 0.015207 0.025160 0.012600
v 0.015254 -0.027560 0.014600
v 0.015738 -0.028435 0.013600
v 0.015745 0.015148 0.004600
v 0.015928 0.021988 0.004600
v 0.015928 0.021988 0.012600
v 0.015958 0.023663 0.004600
v 0.015958 0.023663 0.012600
v 0.015960 -0.008748 0.001000
v 0.016061 0.001857 0.005200
v 0.016061 0.001857 0.008600
v 0.016066 0.006143 -0.000000
v 0.016125 -0.024676 0.004600
v 0.016125 -0.024676 0.012600
v 0.016127 -0.001143 0.005200
v 0.016127 -0.001143 0.008600
v 0.016168 -0.013557 0.013600
v 0.016197 0.008300 0.001000
v 0.016197 0.008300 0.004600
v 0.016209 -0.020035 0.004600
v 0.016209 -0.020035 0.012600
v 0.016241 0.026990 0.014600
v 0.016451 0.013213 0.013600
v 0.016496 0.000366 0.005200
v 0.016496 0.000366 0.008600
v 0.016507 -0.004832 -0.000000
v 0.016540 -0.020491 0.004600
v 0.016540 -0.020491 0.012600
v 0.016549 0.002019 -0.000000
v 0.016715 0.002270 0.008600
v 0.016757 0.027847 0.013600
v 0.016812 -0.006971 0.001000
v 0.016812 -0.006971 0.004600
v 0.016931 -0.023207 0.004600
v 0.016931 -0.023207 0.012600
v 0.016935 -0.014199 0.014600
v 0.016961 -0.021532 0.004600
v 0.016961 -0.021532 0.012600
v 0.017000 0.006500 0.001000
v 0.017011 0.002546 -0.000000
v 0.017160 -0.001170 -0.000000
v 0.017230 0.013839 0.014600
v 0.017254 0.012145 0.008600
v 0.017254 0.012145 0.013600
v 0.017382 -0.011962 0.008600
v 0.017382 -0.011962 0.013600
v 0.017422 -0.026244 0.004600
v 0.017436 0.003585 0.008600
v 0.017467 -0.005113 0.001000
v 0.017603 0.004624 0.001000
v 0.017603 0.004624 0.004600
v 0.017917 -0.003194 0.001000
v 0.017917 -0.003194 0.004600
v 0.017975 -0.027077 0.005600
v 0.017975 -0.027077 0.013600
v 0.018000 0.002694 0.001000
v 0.018158 -0.001238 0.001000
v 0.018185 0.000732 0.001000
v 0.018185 0.000732 0.004600
v 0.018360 0.025596 0.004600
v 0.018503 -0.010142 0.013600
v 0.018712 0.009750 0.013600
v 0.018809 0.013611 0.004600
v 0.018809 0.013611 0.012600
v 0.018943 0.026409 0.005600
v 0.018943 0.026409 0.013600
v 0.019109 0.021287 0.004600
v 0.019180 0.011978 0.004600
v 0.019180 0.011978 0.012600
v 0.019239 0.015230 0.004600
v 0.019239 0.015230 0.012600
v 0.019346 0.008423 0.008600
v 0.019346 0.008423 0.013600
v 0.019380 -0.010623 0.014600
v 0.019388 -0.012482 0.004600
v 0.019388 -0.012482 0.012600
v 0.019434 -0.008218 0.008600
v 0.019434 -0.008218 0.013600
v 0.019477 -0.024757 0.014600
v 0.019492 -0.003243 0.004600
v 0.019599 0.010212 0.014600
v 0.019759 -0.014116 0.004600
v 0.019759 -0.014116 0.012600
v 0.019818 -0.010863 0.004600
v 0.019818 -0.010863 0.012600
v 0.020096 -0.025542 0.013600
v 0.020126 -0.006338 0.013600
v 0.020255 0.005912 0.013600
v 0.020268 0.010704 0.004600
v 0.020268 0.010704 0.012600
v 0.020360 0.024036 0.014600
v 0.020372 0.016464 0.004600
v 0.020372 0.016464 0.012600
v 0.020491 0.016540 0.004600
v 0.020491 0.016540 0.012600
v 0.020645 0.004357 0.008600
v 0.020645 0.004357 0.013600
v 0.020690 -0.004138 0.008600
v 0.020690 -0.004138 0.013600
v 0.020847 -0.015389 0.004600
v 0.020847 -0.015389 0.012600
v 0.020951 -0.009630 0.004600
v 0.020951 -0.009630 0.012600
v 0.020975 -0.002289 0.013600
v 0.021007 0.024799 0.013600
v 0.021019 0.001847 0.013600
v 0.021080 -0.006638 0.014600
v 0.021100 0.000112 0.008600
v 0.021100 0.000112 0.013600
v 0.021215 0.006192 0.014600
v 0.021287 -0.019109 0.004600
v 0.021406 -0.023109 0.004600
v 0.021824 0.010082 0.004600
v 0.021824 0.010082 0.012600
v 0.021949 0.017030 0.004600
v 0.021949 0.017030 0.012600
v 0.021970 -0.002398 0.014600
v 0.022015 0.001934 0.014600
v 0.022086 -0.023843 0.005600
v 0.022086 -0.023843 0.013600
v 0.022228 0.022319 0.004600
v 0.022308 0.013548 0.012600
v 0.022402 -0.016012 0.004600
v 0.022402 -0.016012 0.012600
v 0.022528 -0.009064 0.004600
v 0.022528 -0.009064 0.012600
v 0.022594 0.000642 0.004600
v 0.022594 0.000642 0.012600
v 0.022887 -0.012545 0.012600
v 0.022934 0.023028 0.005600
v 0.022934 0.023028 0.013600
v 0.022966 -0.000991 0.004600
v 0.022966 -0.000991 0.012600
v 0.023024 0.002261 0.004600
v 0.023024 0.002261 0.012600
v 0.023196 -0.021312 0.014600
v 0.023490 0.010254 0.004600
v 0.023490 0.010254 0.012600
v 0.023608 0.016798 0.004600
v 0.023608 0.016798 0.012600
v 0.023933 -0.021988 0.013600
v 0.023952 0.020458 0.014600
v 0.024054 -0.002265 0.004600
v 0.024054 -0.002265 0.012600
v 0.024069 -0.015840 0.004600
v 0.024069 -0.015840 0.012600
v 0.024158 0.003495 0.004600
v 0.024158 0.003495 0.012600
v 0.024187 -0.009296 0.004600
v 0.024187 -0.009296 0.012600
v 0.024569 -0.009476 0.004600
v 0.024569 -0.009476 0.012600
v 0.024707 0.006271 0.004600
v 0.024713 0.021108 0.013600
v 0.024836 -0.019376 0.004600
v 0.024886 0.011180 0.004600
v 0.024886 0.011180 0.012600
v 0.024970 0.015821 0.004600
v 0.024970 0.015821 0.012600
v 0.025465 -0.014913 0.004600
v 0.025465 -0.014913 0.012600
v 0.025521 0.018465 0.004600
v 0.025549 -0.010272 0.004600
v 0.025549 -0.010272 0.012600
v 0.025609 -0.002887 0.004600
v 0.025609 -0.002887 0.012600
v 0.025624 -0.019991 0.005600
v 0.025624 -0.019991 0.013600
v 0.025691 0.012649 0.004600
v 0.025691 0.012649 0.012600
v 0.025721 0.014324 0.004600
v 0.025721 0.014324 0.012600
v 0.025735 0.004060 0.004600
v 0.025735 0.004060 0.012600
v 0.026016 0.004078 0.004600
v 0.026016 0.004078 0.012600
v 0.026094 0.000579 0.012600
v 0.026270 -0.013444 0.004600
v 0.026270 -0.013444 0.012600
v 0.026300 -0.011769 0.004600
v 0.026300 -0.011769 0.012600
v 0.026314 -0.017315 0.014600
v 0.026331 0.019051 0.005600
v 0.026331 0.019051 0.013600
v 0.026378 0.009320 0.004600
v 0.026924 0.016351 0.014600
v 0.027150 -0.017864 0.013600
v 0.027275 -0.002716 0.004600
v 0.027275 -0.002716 0.012600
v 0.027394 0.003828 0.004600
v 0.027394 0.003828 0.012600
v 0.027560 -0.007666 0.004600
v 0.027622 -0.015141 0.004600
v 0.027622 -0.015141 0.014600
v 0.027778 0.016870 0.013600
v 0.028152 0.014132 0.004600
v 0.028499 -0.015622 0.005600
v 0.028499 -0.015622 0.013600
v 0.028671 -0.001789 0.004600
v 0.028671 -0.001789 0.012600
v 0.028751 -0.012869 0.014600
v 0.028755 0.002852 0.004600
v 0.028755 0.002852 0.012600
v 0.029046 0.014580 0.005600
v 0.029046 0.014580 0.013600
v 0.029198 0.011821 0.014600
v 0.029476 -0.000320 0.004600
v 0.029476 -0.000320 0.012600
v 0.029506 0.001355 0.004600
v 0.029506 0.001355 0.012600
v 0.029664 -0.013278 0.013600
v 0.029694 -0.010514 0.004600
v 0.030054 0.009433 0.004600
v 0.030125 0.012196 0.013600
v 0.030443 -0.008091 0.014600
v 0.030636 -0.010848 0.005600
v 0.030636 -0.010848 0.013600
v 0.030716 0.006984 0.014600
v 0.030996 -0.005615 0.004600
v 0.031009 0.009732 0.005600
v 0.031009 0.009732 0.013600
v 0.031178 0.004490 0.004600
v 0.031347 -0.003102 0.014600
v 0.031410 -0.008347 0.013600
v 0.031439 0.001966 0.014600
v 0.031495 -0.000570 0.004600
v 0.031691 0.007206 0.013600
v 0.031980 -0.005793 0.005600
v 0.031980 -0.005793 0.013600
v 0.032168 0.004632 0.005600
v 0.032168 0.004632 0.013600
v 0.032342 -0.003201 0.013600
v 0.032437 0.002029 0.013600
v 0.032495 -0.000588 0.005600
v 0.032495 -0.000588 0.013600
usemtl Steel_-_Satin
f 638 672 692
f 848 841 1044
f 352 563 582
f 647 576 614
f 614 576 567
f 614 567 556
f 556 567 537
f 556 537 477
f 477 537 493
f 477 493 431
f 394 445 175
f 175 445 407
f 175 407 384
f 438 485 352
f 352 485 530
f 352 530 563
f 563 530 565
f 438 352 402
f 402 352 310
f 402 310 384
f 384 310 219
f 384 219 175
f 630 538 582
f 582 538 414
f 582 414 352
f 661 702 630
f 842 806 786
f 1044 841 842
f 842 841 821
f 842 821 806
f 773 766 661
f 661 766 771
f 661 771 702
f 702 771 783
f 702 783 845
f 845 783 804
f 845 804 970
f 970 804 818
f 970 818 1044
f 1044 818 839
f 1044 839 848
f 1119 1114 1054
f 1054 1114 1044
f 1054 1044 961
f 961 1044 842
f 1179 1167 1119
f 1119 1167 1143
f 1119 1143 1114
f 1179 1096 1169
f 1169 1096 1087
f 1169 1087 1148
f 1148 1087 1064
f 1148 1064 1026
f 1116 976 1048
f 1048 976 863
f 1048 863 974
f 974 863 822
f 974 822 858
f 858 822 710
f 731 634 710
f 545 634 652
f 652 634 731
f 652 731 744
f 652 581 545
f 545 581 555
f 545 555 419
f 428 453 381
f 555 506 419
f 419 506 461
f 419 461 319
f 319 461 430
f 319 430 225
f 428 381 410
f 453 499 381
f 381 499 548
f 381 548 594
f 594 548 579
f 594 579 652
f 652 579 593
f 652 593 581
f 262 177 225
f 288 297 284
f 284 131 288
f 288 131 139
f 288 139 262
f 262 139 153
f 262 153 177
f 316 324 394
f 394 324 318
f 394 318 288
f 288 318 307
f 288 307 297
f 284 273 131
f 131 273 266
f 131 266 137
f 137 266 271
f 137 271 150
f 150 271 282
f 150 282 175
f 175 282 295
f 175 295 394
f 394 295 305
f 394 305 316
f 965 985 936
f 936 985 1018
f 936 1018 1037
f 1037 1018 1058
f 1037 1058 1101
f 1101 1058 1082
f 993 976 1026
f 1026 976 1116
f 1026 1116 1148
f 493 445 431
f 431 445 394
f 431 394 382
f 382 394 288
f 382 288 374
f 594 511 381
f 381 511 448
f 381 448 413
f 413 448 399
f 740 744 851
f 851 744 906
f 851 906 910
f 993 967 942
f 942 967 953
f 942 953 946
f 946 953 965
f 946 965 929
f 929 965 936
f 929 936 892
f 892 936 787
f 647 842 661
f 661 842 786
f 661 786 773
f 430 410 225
f 225 410 381
f 225 381 262
f 262 381 413
f 262 413 288
f 288 413 399
f 288 399 374
f 740 692 744
f 744 692 672
f 744 672 652
f 652 672 638
f 652 638 594
f 594 638 589
f 594 589 511
f 827 853 906
f 744 814 799
f 710 822 731
f 731 822 863
f 731 863 744
f 744 863 830
f 744 830 814
f 799 792 744
f 744 792 797
f 744 797 906
f 906 797 811
f 906 811 827
f 942 910 993
f 993 910 906
f 993 906 976
f 976 906 853
f 976 853 865
f 865 872 976
f 976 872 867
f 976 867 863
f 863 867 856
f 863 856 830
f 630 582 661
f 661 582 563
f 661 563 647
f 647 563 565
f 647 565 576
f 614 671 647
f 647 671 717
f 647 717 842
f 842 717 787
f 842 787 961
f 961 787 936
f 961 936 1054
f 1054 936 1037
f 1054 1037 1119
f 1119 1037 1101
f 1119 1101 1179
f 1179 1101 1082
f 1179 1082 1096
f 202 190 224
f 202 189 190
f 190 189 187
f 190 187 183
f 187 182 183
f 183 182 181
f 183 181 185
f 181 184 185
f 185 184 188
f 185 188 198
f 188 197 198
f 198 197 216
f 198 216 245
f 216 244 245
f 245 244 275
f 245 275 328
f 275 327 328
f 328 327 357
f 328 357 405
f 357 404 405
f 405 404 464
f 405 464 515
f 464 514 515
f 515 514 570
f 515 570 613
f 570 612 613
f 613 612 648
f 613 648 676
f 648 675 676
f 676 675 718
f 676 718 757
f 718 756 757
f 757 756 857
f 757 857 915
f 857 914 915
f 915 914 962
f 915 962 1000
f 962 999 1000
f 1000 999 1027
f 1000 1027 1056
f 1027 1055 1056
f 1056 1055 1080
f 1056 1080 1104
f 1080 1103 1104
f 1104 1103 1120
f 1104 1120 1124
f 1120 1123 1124
f 1124 1123 1128
f 1124 1128 1130
f 1128 1129 1130
f 1130 1129 1127
f 1130 1127 1122
f 1127 1121 1122
f 1122 1121 1110
f 1122 1110 1090
f 1110 1089 1090
f 1090 1089 1070
f 1090 1070 1035
f 1070 1034 1035
f 1035 1034 1006
f 1035 1006 973
f 1006 972 973
f 973 972 924
f 973 924 880
f 924 879 880
f 880 879 781
f 880 781 729
f 781 728 729
f 729 728 693
f 729 693 657
f 693 656 657
f 657 656 623
f 657 623 586
f 623 585 586
f 586 585 528
f 586 528 472
f 528 471 472
f 472 471 421
f 472 421 366
f 421 365 366
f 366 365 334
f 366 334 287
f 334 286 287
f 287 286 249
f 287 249 224
f 224 249 223
f 224 223 202
f 600 645 658
f 480 393 426
f 816 837 828
f 649 646 714
f 494 519 542
f 442 466 370
f 370 466 490
f 600 540 645
f 645 540 531
f 645 531 516
f 531 509 516
f 516 509 488
f 516 488 478
f 478 488 462
f 442 370 434
f 434 370 346
f 434 346 439
f 828 837 945
f 986 1007 909
f 909 1007 945
f 909 945 903
f 903 945 837
f 903 837 887
f 887 837 833
f 1112 1097 986
f 986 1097 1065
f 986 1065 1007
f 1112 1100 1111
f 1111 1100 933
f 1111 933 956
f 987 1041 956
f 956 1041 1083
f 956 1083 1111
f 809 956 755
f 755 956 720
f 755 720 739
f 809 862 956
f 956 862 891
f 956 891 987
f 987 891 899
f 987 899 913
f 899 888 913
f 913 888 860
f 913 860 762
f 860 800 762
f 762 800 752
f 762 752 689
f 736 733 659
f 752 736 689
f 689 736 659
f 689 659 624
f 624 659 542
f 624 542 543
f 543 542 519
f 346 274 350
f 350 436 346
f 346 436 478
f 346 478 439
f 439 478 462
f 227 257 201
f 201 257 242
f 201 242 193
f 193 242 236
f 193 236 194
f 194 236 209
f 194 209 199
f 208 203 217
f 217 203 239
f 217 239 371
f 208 217 240
f 240 217 371
f 240 371 302
f 302 371 481
f 302 481 372
f 470 372 458
f 458 475 470
f 470 475 503
f 470 503 577
f 577 503 526
f 577 526 649
f 649 526 551
f 649 551 646
f 646 551 557
f 557 549 646
f 646 549 524
f 646 524 481
f 481 524 500
f 500 473 481
f 481 473 456
f 481 456 372
f 372 456 450
f 372 450 458
f 823 777 815
f 902 881 928
f 743 750 660
f 660 750 780
f 714 646 816
f 816 646 660
f 816 660 837
f 837 660 780
f 837 780 833
f 815 777 727
f 727 777 749
f 727 749 674
f 823 815 881
f 881 815 907
f 881 907 928
f 426 393 373
f 261 300 393
f 393 300 331
f 393 331 373
f 373 331 348
f 373 348 358
f 358 348 351
f 358 351 367
f 351 347 367
f 367 347 330
f 367 330 400
f 400 330 370
f 400 370 465
f 465 370 490
f 465 490 535
f 535 490 512
f 535 512 600
f 600 512 533
f 600 533 540
f 706 659 720
f 720 659 733
f 720 733 739
f 706 720 776
f 776 720 956
f 776 956 889
f 889 956 933
f 889 933 927
f 1068 1059 1100
f 1100 1059 1039
f 1100 1039 933
f 933 1039 1019
f 933 1019 1002
f 1112 986 1100
f 1100 986 1061
f 1100 1061 1068
f 927 933 935
f 935 933 1002
f 935 1002 963
f 963 1002 988
f 963 988 968
f 1004 1021 986
f 986 1021 1042
f 986 1042 1061
f 988 982 968
f 968 982 990
f 968 990 947
f 947 990 1004
f 947 1004 928
f 928 1004 986
f 928 986 902
f 902 986 909
f 203 199 239
f 239 199 209
f 239 209 243
f 243 209 236
f 330 291 370
f 370 291 257
f 370 257 346
f 346 257 227
f 346 227 274
f 749 743 674
f 674 743 660
f 674 660 622
f 622 660 646
f 622 646 561
f 561 646 481
f 561 481 480
f 480 481 371
f 480 371 393
f 393 371 239
f 393 239 261
f 261 239 243
f 436 468 478
f 478 468 494
f 478 494 516
f 516 494 542
f 516 542 645
f 645 542 659
f 645 659 658
f 658 659 706
f 1233 1138 1192
f 93 168 144
f 1251 1234 1263
f 1104 1124 1151
f 730 729 696
f 696 729 657
f 696 657 495
f 657 586 495
f 495 586 472
f 495 472 366
f 1124 1130 1224
f 1130 1122 1224
f 1224 1122 1090
f 1224 1090 1036
f 1036 1090 1035
f 1036 1035 973
f 915 1000 1014
f 1014 1000 1056
f 613 676 854
f 854 676 757
f 405 515 596
f 185 92 183
f 183 92 179
f 183 179 190
f 190 179 124
f 190 124 224
f 224 124 246
f 224 246 287
f 287 246 341
f 287 341 366
f 185 198 92
f 92 198 245
f 92 245 254
f 254 245 328
f 254 328 405
f 922 911 730
f 1075 1028 1066
f 997 957 868
f 868 957 922
f 1075 1066 1138
f 911 920 730
f 730 920 954
f 730 954 1075
f 1075 954 994
f 1075 994 1028
f 1192 1138 1131
f 1066 1076 1138
f 1138 1076 1078
f 1138 1078 1131
f 1131 1078 1071
f 1131 1071 1033
f 1033 1071 1031
f 1033 1031 916
f 1233 1267 1242
f 1256 1227 1267
f 1267 1227 1240
f 1267 1240 1242
f 1242 1229 1233
f 1233 1229 1210
f 1233 1210 1138
f 1138 1210 1186
f 1186 1165 1138
f 1138 1165 1163
f 1138 1163 1075
f 1075 1163 1141
f 1075 1141 1134
f 1134 1036 1075
f 1075 1036 973
f 1075 973 730
f 730 973 880
f 730 880 729
f 1134 1139 1036
f 1036 1139 1160
f 1036 1160 1224
f 1224 1160 1184
f 1224 1184 1256
f 1256 1184 1208
f 1256 1208 1227
f 544 523 587
f 922 730 868
f 868 730 685
f 868 685 697
f 697 699 868
f 868 699 687
f 868 687 643
f 687 667 643
f 643 667 636
f 643 636 523
f 523 636 605
f 523 605 587
f 587 571 544
f 544 571 573
f 544 573 495
f 573 583 495
f 495 583 601
f 495 601 696
f 696 601 632
f 696 632 730
f 730 632 663
f 730 663 685
f 379 363 390
f 390 363 335
f 335 279 241
f 241 279 237
f 241 237 164
f 210 195 126
f 195 206 126
f 126 206 212
f 126 212 246
f 366 341 495
f 495 341 361
f 495 361 376
f 212 234 246
f 246 234 276
f 246 276 341
f 341 276 332
f 341 332 361
f 100 120 124
f 124 120 145
f 124 145 246
f 246 145 162
f 63 75 47
f 47 75 86
f 162 165 246
f 246 165 148
f 246 148 126
f 126 148 122
f 126 122 102
f 237 210 164
f 164 210 126
f 164 126 104
f 104 126 102
f 104 102 59
f 59 102 80
f 59 80 45
f 45 80 65
f 45 65 35
f 65 56 35
f 35 56 63
f 35 63 20
f 20 63 47
f 20 47 14
f 82 47 124
f 124 47 86
f 124 86 100
f 82 54 47
f 47 54 41
f 47 41 14
f 14 41 32
f 14 32 11
f 11 32 27
f 29 39 48
f 48 39 52
f 61 77 92
f 77 96 92
f 92 96 109
f 92 109 179
f 179 109 111
f 179 111 124
f 124 111 98
f 124 98 82
f 424 391 596
f 405 596 254
f 254 596 391
f 254 391 355
f 355 313 254
f 254 313 258
f 254 258 168
f 353 388 469
f 469 388 411
f 469 411 596
f 596 411 422
f 596 422 424
f 258 232 168
f 168 232 221
f 168 221 144
f 144 221 230
f 144 230 215
f 215 230 255
f 215 255 349
f 1234 1222 1263
f 1263 1222 1220
f 1263 1220 1151
f 1151 1220 1196
f 1151 1196 1173
f 1056 1104 1014
f 1014 1104 1151
f 1014 1151 1155
f 1155 1151 1173
f 1155 1146 1014
f 1014 1146 1153
f 1014 1153 1182
f 1153 1171 1182
f 1182 1171 1194
f 1182 1194 1226
f 1226 1194 1216
f 1226 1216 1264
f 1216 1231 1264
f 1264 1231 1249
f 1264 1249 1283
f 27 29 11
f 11 29 48
f 11 48 18
f 18 48 31
f 52 61 48
f 48 61 92
f 48 92 31
f 31 92 90
f 172 159 254
f 254 159 133
f 254 133 92
f 92 133 113
f 92 113 90
f 90 73 31
f 31 73 67
f 31 67 51
f 51 67 71
f 51 71 93
f 71 88 93
f 93 88 107
f 93 107 168
f 168 107 128
f 128 142 168
f 168 142 157
f 168 157 254
f 254 157 170
f 254 170 172
f 596 681 653
f 653 628 596
f 596 628 607
f 596 607 469
f 469 607 598
f 469 598 603
f 704 890 677
f 677 890 707
f 677 707 650
f 650 707 621
f 650 621 626
f 255 308 349
f 349 308 353
f 349 353 496
f 496 353 469
f 496 469 621
f 621 469 603
f 621 603 626
f 515 613 596
f 596 613 854
f 596 854 681
f 681 854 708
f 721 725 854
f 854 725 723
f 854 723 708
f 1014 1011 979
f 757 915 854
f 854 915 1014
f 854 1014 950
f 950 1014 979
f 950 940 854
f 854 940 948
f 854 948 977
f 1084 1105 1182
f 1182 1105 1108
f 704 721 890
f 890 721 854
f 890 854 1008
f 1008 854 977
f 977 1009 1008
f 1008 1009 1050
f 1008 1050 1118
f 1108 1098 1182
f 1182 1098 1091
f 1182 1091 1014
f 1014 1091 1052
f 1014 1052 1011
f 1050 1084 1118
f 1118 1084 1182
f 1118 1182 1183
f 1183 1182 1226
f 1249 1251 1283
f 1283 1251 1263
f 1283 1263 1290
f 1290 1263 1297
f 1259 1270 1263
f 1124 1224 1151
f 1151 1224 1205
f 1151 1205 1198
f 1263 1270 1297
f 1297 1270 1278
f 1297 1278 1293
f 1198 1203 1151
f 1151 1203 1214
f 1151 1214 1263
f 1263 1214 1236
f 1263 1236 1259
f 1278 1280 1293
f 1293 1280 1273
f 1293 1273 1261
f 1246 1244 1224
f 1224 1244 1218
f 1224 1218 1205
f 1267 1284 1256
f 1256 1284 1293
f 1256 1293 1224
f 1224 1293 1261
f 1224 1261 1246
f 1031 997 916
f 916 997 868
f 916 868 732
f 732 868 643
f 335 241 390
f 390 241 368
f 390 368 447
f 368 523 447
f 447 523 544
f 447 544 390
f 390 544 495
f 390 495 379
f 379 495 376
f 1253 1145 1107
f 1181 1277 1152
f 1152 1277 1257
f 1152 1257 1113
f 1113 1257 1213
f 1113 1213 1038
f 1038 1213 1162
f 1038 1162 959
f 959 1162 1093
f 959 1093 812
f 1253 1265 1145
f 1145 1265 1272
f 1145 1272 1178
f 1178 1272 1286
f 1178 1286 1188
f 1188 1286 1294
f 1188 1294 1189
f 1189 1294 1296
f 1189 1296 1181
f 1181 1296 1289
f 1181 1289 1277
f 684 767 788
f 788 767 960
f 788 960 944
f 944 960 1073
f 944 1073 1030
f 1030 1073 1150
f 1030 1150 1107
f 1107 1150 1207
f 1107 1207 1253
f 192 116 269
f 269 116 180
f 269 180 369
f 369 180 278
f 369 278 497
f 497 278 418
f 497 418 610
f 610 418 568
f 610 568 684
f 684 568 665
f 684 665 767
f 1093 981 812
f 812 981 819
f 812 819 695
f 695 819 679
f 695 679 617
f 617 679 597
f 617 597 508
f 508 597 449
f 508 449 375
f 119 10 118
f 118 10 15
f 118 15 127
f 127 15 23
f 127 23 161
f 161 23 38
f 161 38 192
f 192 38 70
f 192 70 116
f 449 312 375
f 375 312 191
f 375 191 285
f 285 191 125
f 285 125 200
f 200 125 79
f 200 79 167
f 167 79 46
f 167 46 130
f 130 46 24
f 130 24 119
f 119 24 17
f 119 17 10
f 175 219 218
f 414 397 352
f 352 397 311
f 352 311 310
f 310 311 303
f 310 303 219
f 219 303 220
f 219 220 218
f 538 522 414
f 414 522 415
f 414 415 397
f 630 620 538
f 538 620 539
f 538 539 522
f 702 694 630
f 630 694 631
f 630 631 620
f 845 795 702
f 702 795 703
f 702 703 694
f 970 943 845
f 845 943 846
f 845 846 795
f 1044 1024 970
f 970 1024 971
f 970 971 943
f 1114 1094 1044
f 1044 1094 1045
f 1044 1045 1024
f 1143 1133 1114
f 1114 1133 1115
f 1114 1115 1094
f 1167 1159 1143
f 1143 1159 1144
f 1143 1144 1133
f 1179 1177 1167
f 1167 1177 1168
f 1167 1168 1159
f 1169 1175 1179
f 1179 1175 1180
f 1179 1180 1177
f 1148 1158 1169
f 1169 1158 1170
f 1169 1170 1175
f 1116 1132 1148
f 1148 1132 1149
f 1148 1149 1158
f 1048 1088 1116
f 1116 1088 1117
f 1116 1117 1132
f 974 1013 1048
f 1048 1013 1049
f 1048 1049 1088
f 858 930 974
f 974 930 975
f 974 975 1013
f 710 774 858
f 858 774 859
f 858 859 930
f 634 680 710
f 710 680 711
f 710 711 774
f 545 611 634
f 634 611 635
f 634 635 680
f 419 507 545
f 545 507 546
f 545 546 611
f 319 378 419
f 419 378 420
f 419 420 507
f 225 289 319
f 319 289 320
f 319 320 378
f 177 214 225
f 225 214 226
f 225 226 289
f 153 174 177
f 177 174 178
f 177 178 214
f 139 147 153
f 153 147 154
f 153 154 174
f 150 141 137
f 137 141 138
f 137 138 131
f 131 138 132
f 131 132 139
f 139 132 140
f 139 140 147
f 218 176 175
f 175 176 152
f 175 152 150
f 150 152 151
f 150 151 141
f 533 534 540
f 540 534 541
f 540 541 531
f 531 541 532
f 531 532 509
f 509 532 510
f 509 510 488
f 488 510 489
f 488 489 462
f 462 489 463
f 462 463 439
f 439 463 440
f 439 440 434
f 434 440 435
f 434 435 442
f 442 435 443
f 442 443 466
f 466 443 467
f 466 467 490
f 490 467 491
f 490 491 512
f 512 491 513
f 512 513 533
f 533 513 534
f 443 406 467
f 467 406 444
f 467 444 491
f 491 444 492
f 491 492 513
f 513 492 536
f 513 536 534
f 534 536 566
f 534 566 541
f 541 566 575
f 541 575 532
f 532 575 564
f 532 564 510
f 510 564 529
f 510 529 489
f 489 529 484
f 489 484 463
f 463 484 437
f 463 437 440
f 440 437 401
f 440 401 435
f 435 401 383
f 435 383 443
f 443 383 406
f 566 567 575
f 575 567 576
f 575 576 564
f 564 576 565
f 564 565 529
f 529 565 530
f 529 530 484
f 484 530 485
f 484 485 437
f 437 485 438
f 437 438 401
f 401 438 402
f 401 402 383
f 383 402 384
f 383 384 406
f 406 384 407
f 406 407 444
f 444 407 445
f 444 445 492
f 492 445 493
f 492 493 536
f 536 493 537
f 536 537 566
f 566 537 567
f 1061 1062 1068
f 1068 1062 1069
f 1068 1069 1059
f 1059 1069 1060
f 1059 1060 1039
f 1039 1060 1040
f 1039 1040 1019
f 1019 1040 1020
f 1019 1020 1002
f 1002 1020 1003
f 1002 1003 988
f 988 1003 989
f 988 989 982
f 982 989 983
f 982 983 990
f 990 983 991
f 990 991 1004
f 1004 991 1005
f 1004 1005 1021
f 1021 1005 1022
f 1021 1022 1042
f 1042 1022 1043
f 1042 1043 1061
f 1061 1043 1062
f 1020 1017 1003
f 1003 1017 984
f 1003 984 989
f 989 984 964
f 989 964 983
f 983 964 952
f 983 952 991
f 991 952 966
f 991 966 1005
f 1005 966 992
f 1005 992 1022
f 1022 992 1025
f 1022 1025 1043
f 1043 1025 1063
f 1043 1063 1062
f 1062 1063 1086
f 1062 1086 1069
f 1069 1086 1095
f 1069 1095 1060
f 1060 1095 1081
f 1060 1081 1040
f 1040 1081 1057
f 1040 1057 1020
f 1020 1057 1017
f 1086 1087 1095
f 1095 1087 1096
f 1095 1096 1081
f 1081 1096 1082
f 1081 1082 1057
f 1057 1082 1058
f 1057 1058 1017
f 1017 1058 1018
f 1017 1018 984
f 984 1018 985
f 984 985 964
f 964 985 965
f 964 965 952
f 952 965 953
f 952 953 966
f 966 953 967
f 966 967 992
f 992 967 993
f 992 993 1025
f 1025 993 1026
f 1025 1026 1063
f 1063 1026 1064
f 1063 1064 1086
f 1086 1064 1087
f 551 552 557
f 557 552 558
f 557 558 549
f 549 558 550
f 549 550 524
f 524 550 525
f 524 525 500
f 500 525 501
f 500 501 473
f 473 501 474
f 473 474 456
f 456 474 457
f 456 457 450
f 450 457 451
f 450 451 458
f 458 451 459
f 458 459 475
f 475 459 476
f 475 476 503
f 503 476 504
f 503 504 526
f 526 504 527
f 526 527 551
f 551 527 552
f 525 547 501
f 501 547 498
f 501 498 474
f 474 498 452
f 474 452 457
f 457 452 427
f 457 427 451
f 451 427 409
f 451 409 459
f 459 409 429
f 459 429 476
f 476 429 460
f 476 460 504
f 504 460 505
f 504 505 527
f 527 505 554
f 527 554 552
f 552 554 580
f 552 580 558
f 558 580 592
f 558 592 550
f 550 592 578
f 550 578 525
f 525 578 547
f 580 581 592
f 592 581 593
f 592 593 578
f 578 593 579
f 578 579 547
f 547 579 548
f 547 548 498
f 498 548 499
f 498 499 452
f 452 499 453
f 452 453 427
f 427 453 428
f 427 428 409
f 409 428 410
f 409 410 429
f 429 410 430
f 429 430 460
f 460 430 461
f 460 461 505
f 505 461 506
f 505 506 554
f 554 506 555
f 554 555 580
f 580 555 581
f 840 878 820
f 820 878 850
f 820 850 805
f 805 850 808
f 805 808 785
f 785 808 769
f 785 769 772
f 772 769 748
f 772 748 765
f 765 748 742
f 765 742 770
f 770 742 746
f 770 746 782
f 782 746 761
f 782 761 803
f 803 761 802
f 803 802 817
f 817 802 844
f 817 844 838
f 838 844 874
f 838 874 847
f 847 874 883
f 847 883 840
f 840 883 878
f 746 745 761
f 761 745 760
f 761 760 802
f 802 760 801
f 802 801 844
f 844 801 843
f 844 843 874
f 874 843 873
f 874 873 883
f 883 873 882
f 883 882 878
f 878 882 877
f 878 877 850
f 850 877 849
f 850 849 808
f 808 849 807
f 808 807 769
f 769 807 768
f 769 768 748
f 748 768 747
f 748 747 742
f 742 747 741
f 742 741 746
f 746 741 745
f 759 758 790
f 790 758 789
f 790 789 825
f 825 789 824
f 825 824 870
f 870 824 869
f 870 869 894
f 894 869 893
f 894 893 901
f 901 893 900
f 901 900 896
f 896 900 895
f 896 895 876
f 876 895 875
f 876 875 832
f 832 875 831
f 832 831 794
f 794 831 793
f 794 793 764
f 764 793 763
f 764 763 754
f 754 763 753
f 754 753 759
f 759 753 758
f 810 790 826
f 826 790 825
f 826 825 852
f 852 825 870
f 852 870 864
f 864 870 894
f 864 894 871
f 871 894 901
f 871 901 866
f 866 901 896
f 866 896 855
f 855 896 876
f 855 876 829
f 829 876 832
f 829 832 813
f 813 832 794
f 813 794 798
f 798 794 764
f 798 764 791
f 791 764 754
f 791 754 796
f 796 754 759
f 796 759 810
f 810 759 790
f 251 250 264
f 264 250 263
f 264 263 293
f 293 263 292
f 293 292 322
f 322 292 321
f 322 321 338
f 338 321 337
f 338 337 345
f 345 337 344
f 345 344 340
f 340 344 339
f 340 339 326
f 326 339 325
f 326 325 299
f 299 325 298
f 299 298 268
f 268 298 267
f 268 267 253
f 253 267 252
f 253 252 248
f 248 252 247
f 248 247 251
f 251 247 250
f 281 264 294
f 294 264 293
f 294 293 304
f 304 293 322
f 304 322 315
f 315 322 338
f 315 338 323
f 323 338 345
f 323 345 317
f 317 345 340
f 317 340 306
f 306 340 326
f 306 326 296
f 296 326 299
f 296 299 283
f 283 299 268
f 283 268 272
f 272 268 253
f 272 253 265
f 265 253 248
f 265 248 270
f 270 248 251
f 270 251 281
f 281 251 264
f 1065 1080 1055
f 1065 1055 1007
f 1007 1055 1027
f 1007 1027 945
f 1027 999 945
f 945 999 962
f 945 962 828
f 962 914 828
f 828 914 857
f 828 857 816
f 816 857 756
f 816 756 714
f 756 718 714
f 714 718 675
f 714 675 649
f 649 675 648
f 649 648 577
f 648 612 577
f 577 612 570
f 577 570 470
f 570 514 470
f 470 514 464
f 470 464 372
f 464 404 372
f 372 404 357
f 372 357 302
f 357 327 302
f 302 327 275
f 302 275 240
f 275 244 240
f 240 244 216
f 240 216 208
f 208 216 197
f 208 197 188
f 193 194 184
f 184 194 199
f 184 199 188
f 188 199 203
f 188 203 208
f 184 181 193
f 193 181 182
f 193 182 201
f 201 182 187
f 201 187 227
f 187 189 227
f 227 189 202
f 227 202 274
f 202 223 274
f 274 223 249
f 274 249 350
f 249 286 350
f 350 286 334
f 350 334 436
f 334 365 436
f 436 365 421
f 436 421 468
f 468 421 471
f 624 543 528
f 528 543 519
f 528 519 471
f 471 519 494
f 471 494 468
f 528 585 624
f 624 585 623
f 624 623 689
f 623 656 689
f 689 656 693
f 689 693 762
f 693 728 762
f 762 728 781
f 762 781 913
f 781 879 913
f 913 879 924
f 913 924 987
f 924 972 987
f 987 972 1006
f 987 1006 1041
f 1041 1006 1034
f 1034 1070 1041
f 1041 1070 1089
f 1041 1089 1083
f 1083 1089 1110
f 1083 1110 1111
f 1110 1121 1111
f 1111 1121 1127
f 1111 1127 1112
f 1127 1129 1112
f 1112 1129 1128
f 1112 1128 1097
f 1128 1123 1097
f 1097 1123 1120
f 1097 1120 1065
f 1065 1120 1103
f 1065 1103 1080
f 479 487 433
f 479 486 487
f 487 486 553
f 487 553 560
f 553 559 560
f 560 559 609
f 560 609 616
f 609 615 616
f 616 615 655
f 616 655 670
f 655 669 670
f 670 669 701
f 670 701 716
f 701 715 716
f 716 715 751
f 716 751 779
f 751 778 779
f 779 778 861
f 779 861 885
f 861 884 885
f 885 884 908
f 885 908 919
f 908 918 919
f 919 918 934
f 919 934 939
f 934 938 939
f 939 938 937
f 939 937 932
f 937 931 932
f 932 931 917
f 932 917 905
f 917 904 905
f 905 904 886
f 905 886 835
f 886 834 835
f 835 834 784
f 835 784 738
f 784 737 738
f 738 737 719
f 738 719 691
f 719 690 691
f 691 690 673
f 691 673 640
f 673 639 640
f 640 639 625
f 640 625 591
f 625 590 591
f 591 590 569
f 591 569 518
f 569 517 518
f 518 517 502
f 518 502 455
f 502 454 455
f 455 454 446
f 455 446 417
f 446 416 417
f 417 416 408
f 417 408 387
f 408 386 387
f 387 386 385
f 387 385 396
f 385 395 396
f 396 395 398
f 396 398 433
f 433 398 432
f 433 432 479
f 923 922 958
f 958 922 957
f 958 957 998
f 998 957 997
f 998 997 1032
f 1032 997 1031
f 1032 1031 1072
f 1072 1031 1071
f 1072 1071 1079
f 1079 1071 1078
f 1079 1078 1077
f 1077 1078 1076
f 1077 1076 1067
f 1067 1076 1066
f 1067 1066 1029
f 1029 1066 1028
f 1029 1028 995
f 995 1028 994
f 995 994 955
f 955 994 954
f 955 954 921
f 921 954 920
f 921 920 912
f 912 920 911
f 912 911 923
f 923 911 922
f 923 958 1001
f 955 921 1001
f 1001 921 912
f 1001 912 923
f 1067 1029 1001
f 1001 1029 995
f 1001 995 955
f 1072 1079 1001
f 1001 1079 1077
f 1001 1077 1067
f 958 998 1001
f 1001 998 1032
f 1001 1032 1072
f 1142 1141 1164
f 1164 1141 1163
f 1164 1163 1166
f 1166 1163 1165
f 1166 1165 1187
f 1187 1165 1186
f 1187 1186 1211
f 1211 1186 1210
f 1211 1210 1230
f 1230 1210 1229
f 1230 1229 1243
f 1243 1229 1242
f 1243 1242 1241
f 1241 1242 1240
f 1241 1240 1228
f 1228 1240 1227
f 1228 1227 1209
f 1209 1227 1208
f 1209 1208 1185
f 1185 1208 1184
f 1185 1184 1161
f 1161 1184 1160
f 1161 1160 1140
f 1140 1160 1139
f 1140 1139 1135
f 1135 1139 1134
f 1135 1134 1142
f 1142 1134 1141
f 1166 1187 1193
f 1166 1193 1164
f 1140 1135 1193
f 1193 1135 1142
f 1193 1142 1164
f 1209 1185 1193
f 1193 1185 1161
f 1193 1161 1140
f 1243 1241 1193
f 1193 1241 1228
f 1193 1228 1209
f 1187 1211 1193
f 1193 1211 1230
f 1193 1230 1243
f 588 587 606
f 606 587 605
f 606 605 637
f 637 605 636
f 637 636 668
f 668 636 667
f 668 667 688
f 688 667 687
f 688 687 700
f 700 687 699
f 700 699 698
f 698 699 697
f 698 697 686
f 686 697 685
f 686 685 664
f 664 685 663
f 664 663 633
f 633 663 632
f 633 632 602
f 602 632 601
f 602 601 584
f 584 601 583
f 584 583 574
f 574 583 573
f 574 573 572
f 572 573 571
f 572 571 588
f 588 571 587
f 574 572 644
f 574 644 584
f 664 633 644
f 644 633 602
f 644 602 584
f 700 698 644
f 644 698 686
f 644 686 664
f 637 668 644
f 644 668 688
f 644 688 700
f 572 588 644
f 644 588 606
f 644 606 637
f 211 210 238
f 238 210 237
f 238 237 280
f 280 237 279
f 280 279 336
f 336 279 335
f 336 335 364
f 364 335 363
f 364 363 380
f 380 363 379
f 380 379 377
f 377 379 376
f 377 376 362
f 362 376 361
f 362 361 333
f 333 361 332
f 333 332 277
f 277 332 276
f 277 276 235
f 235 276 234
f 235 234 213
f 213 234 212
f 213 212 207
f 207 212 206
f 207 206 196
f 196 206 195
f 196 195 211
f 211 195 210
f 213 207 290
f 213 290 235
f 362 333 290
f 290 333 277
f 290 277 235
f 364 380 290
f 290 380 377
f 290 377 362
f 238 280 290
f 290 280 336
f 290 336 364
f 207 196 290
f 290 196 211
f 290 211 238
f 66 65 81
f 81 65 80
f 81 80 103
f 103 80 102
f 103 102 123
f 123 102 122
f 123 122 149
f 149 122 148
f 149 148 166
f 166 148 165
f 166 165 163
f 163 165 162
f 163 162 146
f 146 162 145
f 146 145 121
f 121 145 120
f 121 120 101
f 101 120 100
f 101 100 87
f 87 100 86
f 87 86 76
f 76 86 75
f 76 75 64
f 64 75 63
f 64 63 57
f 57 63 56
f 57 56 66
f 66 56 65
f 87 76 106
f 87 106 101
f 163 146 106
f 106 146 121
f 106 121 101
f 123 149 106
f 106 149 166
f 106 166 163
f 66 81 106
f 106 81 103
f 106 103 123
f 76 64 106
f 106 64 57
f 106 57 66
f 33 32 42
f 42 32 41
f 42 41 55
f 55 41 54
f 55 54 83
f 83 54 82
f 83 82 99
f 99 82 98
f 99 98 112
f 112 98 111
f 112 111 110
f 110 111 109
f 110 109 97
f 97 109 96
f 97 96 78
f 78 96 77
f 78 77 62
f 62 77 61
f 62 61 53
f 53 61 52
f 53 52 40
f 40 52 39
f 40 39 30
f 30 39 29
f 30 29 28
f 28 29 27
f 28 27 33
f 33 27 32
f 62 53 60
f 62 60 78
f 112 110 60
f 60 110 97
f 60 97 78
f 55 83 60
f 60 83 99
f 60 99 112
f 28 33 60
f 60 33 42
f 60 42 55
f 53 40 60
f 60 40 30
f 60 30 28
f 74 73 91
f 91 73 90
f 91 90 114
f 114 90 113
f 114 113 134
f 134 113 133
f 134 133 160
f 160 133 159
f 160 159 173
f 173 159 172
f 173 172 171
f 171 172 170
f 171 170 158
f 158 170 157
f 158 157 143
f 143 157 142
f 143 142 129
f 129 142 128
f 129 128 108
f 108 128 107
f 108 107 89
f 89 107 88
f 89 88 72
f 72 88 71
f 72 71 68
f 68 71 67
f 68 67 74
f 74 67 73
f 143 129 115
f 143 115 158
f 160 173 115
f 115 173 171
f 115 171 158
f 91 114 115
f 115 114 134
f 115 134 160
f 72 68 115
f 115 68 74
f 115 74 91
f 129 108 115
f 115 108 89
f 115 89 72
f 233 232 259
f 259 232 258
f 259 258 314
f 314 258 313
f 314 313 356
f 356 313 355
f 356 355 392
f 392 355 391
f 392 391 425
f 425 391 424
f 425 424 423
f 423 424 422
f 423 422 412
f 412 422 411
f 412 411 389
f 389 411 388
f 389 388 354
f 354 388 353
f 354 353 309
f 309 353 308
f 309 308 256
f 256 308 255
f 256 255 231
f 231 255 230
f 231 230 222
f 222 230 221
f 222 221 233
f 233 221 232
f 412 389 329
f 412 329 423
f 356 392 329
f 329 392 425
f 329 425 423
f 233 259 329
f 329 259 314
f 329 314 356
f 256 231 329
f 329 231 222
f 329 222 233
f 389 354 329
f 329 354 309
f 329 309 256
f 608 607 629
f 629 607 628
f 629 628 654
f 654 628 653
f 654 653 682
f 682 653 681
f 682 681 709
f 709 681 708
f 709 708 724
f 724 708 723
f 724 723 726
f 726 723 725
f 726 725 722
f 722 725 721
f 722 721 705
f 705 721 704
f 705 704 678
f 678 704 677
f 678 677 651
f 651 677 650
f 651 650 627
f 627 650 626
f 627 626 604
f 604 626 603
f 604 603 599
f 599 603 598
f 599 598 608
f 608 598 607
f 726 722 662
f 726 662 724
f 654 682 662
f 662 682 709
f 662 709 724
f 599 608 662
f 662 608 629
f 662 629 654
f 651 627 662
f 662 627 604
f 662 604 599
f 722 705 662
f 662 705 678
f 662 678 651
f 951 950 980
f 980 950 979
f 980 979 1012
f 1012 979 1011
f 1012 1011 1053
f 1053 1011 1052
f 1053 1052 1092
f 1092 1052 1091
f 1092 1091 1099
f 1099 1091 1098
f 1099 1098 1109
f 1109 1098 1108
f 1109 1108 1106
f 1106 1108 1105
f 1106 1105 1085
f 1085 1105 1084
f 1085 1084 1051
f 1051 1084 1050
f 1051 1050 1010
f 1010 1050 1009
f 1010 1009 978
f 978 1009 977
f 978 977 949
f 949 977 948
f 949 948 941
f 941 948 940
f 941 940 951
f 951 940 950
f 1099 1109 1023
f 1099 1023 1092
f 980 1012 1023
f 1023 1012 1053
f 1023 1053 1092
f 949 941 1023
f 1023 941 951
f 1023 951 980
f 1051 1010 1023
f 1023 1010 978
f 1023 978 949
f 1109 1106 1023
f 1023 1106 1085
f 1023 1085 1051
f 1156 1155 1174
f 1174 1155 1173
f 1174 1173 1197
f 1197 1173 1196
f 1197 1196 1221
f 1221 1196 1220
f 1221 1220 1223
f 1223 1220 1222
f 1223 1222 1235
f 1235 1222 1234
f 1235 1234 1252
f 1252 1234 1251
f 1252 1251 1250
f 1250 1251 1249
f 1250 1249 1232
f 1232 1249 1231
f 1232 1231 1217
f 1217 1231 1216
f 1217 1216 1195
f 1195 1216 1194
f 1195 1194 1172
f 1172 1194 1171
f 1172 1171 1154
f 1154 1171 1153
f 1154 1153 1147
f 1147 1153 1146
f 1147 1146 1156
f 1156 1146 1155
f 1223 1235 1200
f 1223 1200 1221
f 1156 1174 1200
f 1200 1174 1197
f 1200 1197 1221
f 1172 1154 1200
f 1200 1154 1147
f 1200 1147 1156
f 1232 1217 1200
f 1200 1217 1195
f 1200 1195 1172
f 1235 1252 1200
f 1200 1252 1250
f 1200 1250 1232
f 1206 1205 1219
f 1219 1205 1218
f 1219 1218 1245
f 1245 1218 1244
f 1245 1244 1247
f 1247 1244 1246
f 1247 1246 1262
f 1262 1246 1261
f 1262 1261 1274
f 1274 1261 1273
f 1274 1273 1281
f 1281 1273 1280
f 1281 1280 1279
f 1279 1280 1278
f 1279 1278 1271
f 1271 1278 1270
f 1271 1270 1260
f 1260 1270 1259
f 1260 1259 1237
f 1237 1259 1236
f 1237 1236 1215
f 1215 1236 1214
f 1215 1214 1204
f 1204 1214 1203
f 1204 1203 1199
f 1199 1203 1198
f 1199 1198 1206
f 1206 1198 1205
f 1247 1262 1248
f 1247 1248 1245
f 1199 1206 1248
f 1248 1206 1219
f 1248 1219 1245
f 1237 1215 1248
f 1248 1215 1204
f 1248 1204 1199
f 1279 1271 1248
f 1248 1271 1260
f 1248 1260 1237
f 1262 1274 1248
f 1248 1274 1281
f 1248 1281 1279
f 1030 1107 1088
f 1088 1049 1030
f 1030 1049 1013
f 1030 1013 944
f 1013 975 944
f 944 975 930
f 944 930 788
f 930 859 788
f 788 859 774
f 788 774 684
f 774 711 684
f 684 711 680
f 684 680 610
f 680 635 610
f 610 635 611
f 610 611 497
f 611 546 497
f 497 546 507
f 497 507 369
f 507 420 369
f 369 420 378
f 369 378 269
f 378 320 269
f 269 320 289
f 269 289 192
f 289 226 192
f 192 226 214
f 192 214 161
f 214 178 161
f 161 178 174
f 161 174 127
f 174 154 127
f 127 154 147
f 127 147 118
f 147 140 118
f 118 140 132
f 118 132 119
f 132 138 119
f 119 138 141
f 119 141 130
f 141 151 130
f 130 151 152
f 130 152 167
f 167 152 176
f 167 176 200
f 176 218 200
f 200 218 220
f 200 220 285
f 220 303 285
f 285 303 311
f 285 311 375
f 311 397 375
f 375 397 415
f 375 415 508
f 415 522 508
f 508 522 539
f 508 539 617
f 539 620 617
f 617 620 631
f 617 631 695
f 631 694 695
f 695 694 703
f 695 703 812
f 703 795 812
f 812 795 846
f 812 846 959
f 846 943 959
f 959 943 971
f 959 971 1038
f 971 1024 1038
f 1038 1024 1045
f 1038 1045 1113
f 1045 1094 1113
f 1113 1094 1115
f 1113 1115 1152
f 1115 1133 1152
f 1152 1133 1144
f 1152 1144 1181
f 1144 1159 1181
f 1181 1159 1168
f 1181 1168 1189
f 1168 1177 1189
f 1189 1177 1180
f 1189 1180 1188
f 1180 1175 1188
f 1188 1175 1170
f 1188 1170 1178
f 1170 1158 1178
f 1178 1158 1149
f 1178 1149 1145
f 1145 1149 1132
f 1145 1132 1107
f 1107 1132 1117
f 1107 1117 1088
f 358 367 395
f 395 385 358
f 358 385 386
f 358 386 373
f 386 408 373
f 373 408 416
f 373 416 426
f 416 446 426
f 426 446 454
f 426 454 480
f 454 502 480
f 480 502 517
f 480 517 561
f 517 569 561
f 561 569 590
f 561 590 622
f 590 625 622
f 622 625 639
f 622 639 674
f 639 673 674
f 674 673 690
f 674 690 727
f 690 719 727
f 727 719 737
f 727 737 815
f 737 784 815
f 815 784 834
f 815 834 907
f 907 834 886
f 907 886 928
f 928 886 904
f 928 904 947
f 947 904 917
f 947 917 968
f 917 931 968
f 968 931 937
f 968 937 963
f 937 938 963
f 963 938 934
f 963 934 935
f 934 918 935
f 935 918 908
f 935 908 927
f 927 908 889
f 908 884 889
f 889 884 861
f 889 861 776
f 861 778 776
f 776 778 751
f 776 751 706
f 751 715 706
f 706 715 701
f 706 701 658
f 701 669 658
f 658 669 655
f 658 655 600
f 655 615 600
f 600 615 609
f 600 609 535
f 609 559 535
f 535 559 553
f 535 553 465
f 553 486 465
f 465 486 479
f 465 479 400
f 400 479 432
f 400 432 367
f 367 432 398
f 367 398 395
f 932 942 939
f 939 942 946
f 939 946 919
f 919 946 929
f 919 929 885
f 885 929 892
f 885 892 779
f 779 892 787
f 779 787 716
f 716 787 717
f 716 717 670
f 670 717 671
f 670 671 616
f 616 671 614
f 616 614 560
f 560 614 556
f 560 556 487
f 487 556 477
f 487 477 433
f 433 477 431
f 433 431 396
f 396 431 382
f 396 382 387
f 387 382 374
f 387 374 417
f 417 374 399
f 417 399 455
f 455 399 448
f 455 448 518
f 518 448 511
f 518 511 591
f 591 511 589
f 591 589 640
f 640 589 638
f 640 638 691
f 691 638 692
f 691 692 738
f 738 692 740
f 738 740 835
f 835 740 851
f 835 851 905
f 905 851 910
f 905 910 932
f 932 910 942
f 797 796 811
f 811 796 810
f 811 810 827
f 827 810 826
f 827 826 853
f 853 826 852
f 853 852 865
f 865 852 864
f 865 864 872
f 872 864 871
f 872 871 867
f 867 871 866
f 867 866 856
f 856 866 855
f 856 855 830
f 830 855 829
f 830 829 814
f 814 829 813
f 814 813 799
f 799 813 798
f 799 798 792
f 792 798 791
f 792 791 797
f 797 791 796
f 271 270 282
f 282 270 281
f 282 281 295
f 295 281 294
f 295 294 305
f 305 294 304
f 305 304 316
f 316 304 315
f 316 315 324
f 324 315 323
f 324 323 318
f 318 323 317
f 318 317 307
f 307 317 306
f 307 306 297
f 297 306 296
f 297 296 284
f 284 296 283
f 284 283 273
f 273 283 272
f 273 272 266
f 266 272 265
f 266 265 271
f 271 265 270
f 771 770 783
f 783 770 782
f 783 782 804
f 804 782 803
f 804 803 818
f 818 803 817
f 818 817 839
f 839 817 838
f 839 838 848
f 848 838 847
f 848 847 841
f 841 847 840
f 841 840 821
f 821 840 820
f 821 820 806
f 806 820 805
f 806 805 786
f 786 805 785
f 786 785 773
f 773 785 772
f 773 772 766
f 766 772 765
f 766 765 771
f 771 765 770
f 789 777 824
f 824 777 823
f 824 823 869
f 869 823 881
f 869 881 893
f 893 881 902
f 893 902 900
f 900 902 909
f 900 909 895
f 895 909 903
f 895 903 875
f 875 903 887
f 875 887 831
f 831 887 833
f 831 833 793
f 793 833 780
f 793 780 763
f 763 780 750
f 763 750 753
f 753 750 743
f 753 743 758
f 758 743 749
f 758 749 789
f 789 749 777
f 263 257 292
f 292 257 291
f 292 291 321
f 321 291 330
f 321 330 337
f 337 330 347
f 337 347 344
f 344 347 351
f 344 351 339
f 339 351 348
f 339 348 325
f 325 348 331
f 325 331 298
f 298 331 300
f 298 300 267
f 267 300 261
f 267 261 252
f 252 261 243
f 252 243 247
f 247 243 236
f 247 236 250
f 250 236 242
f 250 242 263
f 263 242 257
f 760 752 801
f 801 752 800
f 801 800 843
f 843 800 860
f 843 860 873
f 873 860 888
f 873 888 882
f 882 888 899
f 882 899 877
f 877 899 891
f 877 891 849
f 849 891 862
f 849 862 807
f 807 862 809
f 807 809 768
f 768 809 755
f 768 755 747
f 747 755 739
f 747 739 741
f 741 739 733
f 741 733 745
f 745 733 736
f 745 736 760
f 760 736 752
f 1258 1238 1268
f 1258 1239 1238
f 1238 1239 1212
f 1238 1212 1190
f 1212 1191 1190
f 1190 1191 1157
f 1190 1157 1125
f 1157 1126 1125
f 1125 1126 1074
f 1125 1074 1015
f 1074 1016 1015
f 1015 1016 969
f 1015 969 897
f 969 898 897
f 897 898 775
f 897 775 712
f 775 713 712
f 712 713 666
f 712 666 618
f 666 619 618
f 618 619 562
f 618 562 482
f 562 483 482
f 482 483 403
f 482 403 342
f 403 343 342
f 342 343 260
f 342 260 204
f 260 205 204
f 204 205 169
f 204 169 135
f 169 136 135
f 135 136 105
f 135 105 84
f 105 85 84
f 84 85 58
f 84 58 43
f 58 44 43
f 43 44 34
f 43 34 21
f 34 22 21
f 21 22 16
f 21 16 8
f 16 9 8
f 8 9 6
f 8 6 2
f 6 3 2
f 2 3 1
f 2 1 4
f 1 5 4
f 4 5 7
f 4 7 12
f 7 13 12
f 12 13 19
f 12 19 25
f 25 19 26
f 25 26 36
f 36 26 37
f 36 37 49
f 37 50 49
f 49 50 69
f 49 69 94
f 69 95 94
f 94 95 117
f 94 117 155
f 117 156 155
f 155 156 186
f 155 186 228
f 186 229 228
f 228 229 301
f 228 301 359
f 301 360 359
f 359 360 441
f 359 441 520
f 441 521 520
f 520 521 595
f 520 595 641
f 595 642 641
f 641 642 683
f 641 683 734
f 683 735 734
f 734 735 836
f 734 836 925
f 836 926 925
f 925 926 996
f 925 996 1046
f 996 1047 1046
f 1046 1047 1102
f 1046 1102 1136
f 1102 1137 1136
f 1136 1137 1176
f 1136 1176 1201
f 1176 1202 1201
f 1201 1202 1225
f 1201 1225 1254
f 1225 1255 1254
f 1254 1255 1266
f 1254 1266 1275
f 1266 1276 1275
f 1275 1276 1285
f 1275 1285 1291
f 1285 1292 1291
f 1291 1292 1298
f 1291 1298 1301
f 1298 1302 1301
f 1301 1302 1304
f 1301 1304 1305
f 1304 1306 1305
f 1305 1306 1303
f 1305 1303 1299
f 1303 1300 1299
f 1299 1300 1295
f 1299 1295 1287
f 1295 1288 1287
f 1287 1288 1282
f 1287 1282 1268
f 1268 1282 1269
f 1268 1269 1258
f 24 46 26
f 26 19 24
f 24 19 13
f 24 13 17
f 13 7 17
f 17 7 5
f 17 5 10
f 5 1 10
f 10 1 3
f 10 3 15
f 3 6 15
f 15 6 9
f 15 9 23
f 9 16 23
f 23 16 22
f 23 22 38
f 22 34 38
f 38 34 44
f 38 44 70
f 44 58 70
f 70 58 85
f 70 85 116
f 85 105 116
f 116 105 136
f 116 136 180
f 136 169 180
f 180 169 205
f 180 205 278
f 205 260 278
f 278 260 343
f 278 343 418
f 343 403 418
f 418 403 483
f 418 483 568
f 483 562 568
f 568 562 619
f 568 619 665
f 619 666 665
f 665 666 713
f 665 713 767
f 713 775 767
f 767 775 898
f 767 898 960
f 898 969 960
f 960 969 1016
f 960 1016 1073
f 1016 1074 1073
f 1073 1074 1126
f 1073 1126 1150
f 1126 1157 1150
f 1150 1157 1191
f 1150 1191 1207
f 1191 1212 1207
f 1207 1212 1239
f 1207 1239 1253
f 1253 1239 1258
f 1253 1258 1265
f 1265 1258 1269
f 1265 1269 1272
f 1269 1282 1272
f 1272 1282 1288
f 1272 1288 1286
f 1288 1295 1286
f 1286 1295 1300
f 1286 1300 1294
f 1300 1303 1294
f 1294 1303 1306
f 1294 1306 1296
f 1306 1304 1296
f 1296 1304 1302
f 1296 1302 1289
f 1302 1298 1289
f 1289 1298 1292
f 1289 1292 1277
f 1292 1285 1277
f 1277 1285 1276
f 1277 1276 1257
f 1276 1266 1257
f 1257 1266 1255
f 1257 1255 1213
f 1255 1225 1213
f 1213 1225 1202
f 1213 1202 1162
f 1202 1176 1162
f 1162 1176 1137
f 1162 1137 1093
f 1137 1102 1093
f 1093 1102 1047
f 1093 1047 981
f 1047 996 981
f 981 996 926
f 981 926 819
f 926 836 819
f 819 836 735
f 819 735 679
f 735 683 679
f 679 683 642
f 679 642 597
f 642 595 597
f 597 595 521
f 597 521 449
f 521 441 449
f 449 441 360
f 449 360 312
f 360 301 312
f 312 301 229
f 312 229 191
f 229 186 191
f 191 186 156
f 191 156 125
f 156 117 125
f 125 117 95
f 125 95 79
f 95 69 79
f 79 69 50
f 79 50 46
f 46 50 37
f 46 37 26
f 59 45 36
f 36 45 25
f 45 35 25
f 25 35 20
f 25 20 12
f 12 20 14
f 12 14 4
f 4 14 11
f 4 11 2
f 2 11 18
f 2 18 8
f 8 18 31
f 8 31 21
f 21 31 51
f 21 51 43
f 43 51 93
f 43 93 84
f 84 93 144
f 84 144 135
f 135 144 215
f 135 215 204
f 204 215 349
f 204 349 342
f 342 349 496
f 342 496 482
f 482 496 621
f 482 621 618
f 618 621 707
f 618 707 712
f 712 707 890
f 712 890 897
f 897 890 1008
f 897 1008 1015
f 1015 1008 1118
f 1015 1118 1125
f 1125 1118 1183
f 1125 1183 1190
f 1190 1183 1226
f 1190 1226 1238
f 1238 1226 1264
f 1238 1264 1268
f 1268 1264 1283
f 1268 1283 1287
f 1287 1283 1290
f 1287 1290 1299
f 1299 1290 1297
f 1299 1297 1305
f 1305 1297 1293
f 1305 1293 1301
f 1301 1293 1284
f 1301 1284 1291
f 1291 1284 1267
f 1291 1267 1275
f 1275 1267 1233
f 1275 1233 1254
f 1254 1233 1192
f 1254 1192 1201
f 1201 1192 1131
f 1201 1131 1136
f 1136 1131 1033
f 1136 1033 1046
f 1046 1033 916
f 1046 916 925
f 925 916 732
f 925 732 734
f 734 732 643
f 734 643 641
f 641 643 523
f 641 523 520
f 520 523 368
f 520 368 359
f 359 368 241
f 359 241 228
f 228 241 164
f 228 164 155
f 155 164 104
f 155 104 94
f 94 104 59
f 94 59 49
f 49 59 36
# 1306 vertices
# 0 texture params
# 0 normals
# 2636 facets

# 1 groups
